<svg xmlns="http://www.w3.org/2000/svg" width="62" height="88"><path d="M31 1C14.43 1 1 14.43 1 31c0 27.23 30 56 30 56s30-28.77 30-56C61 14.43 47.56 1 31 1m19 30c0 10.49-8.51 19-19 19-10.5 0-19-8.51-19-19 0-10.5 8.5-19 19-19 10.49 0 19 8.5 19 19" fill="#5ea87c"/><path d="M31 1C14.43 1 1 14.43 1 31c0 27.23 30 56 30 56s30-28.77 30-56C61 14.43 47.56 1 31 1zm19 30c0 10.49-8.51 19-19 19-10.5 0-19-8.51-19-19 0-10.5 8.5-19 19-19 10.49 0 19 8.5 19 19z" stroke="#00441b" fill="none" stroke-width="2" stroke-linecap="round" stroke-linejoin="round"/></svg>