<svg xmlns="http://www.w3.org/2000/svg" width="16" height="22.5"><path d="M8 .5A7.49 7.49 0 00.5 8C.5 14.8 8 22 8 22s7.5-7.2 7.5-14C15.5 3.85 12.14.5 8 .5M12.75 8c0 2.62-2.13 4.75-4.75 4.75-2.63 0-4.75-2.13-4.75-4.75 0-2.63 2.12-4.75 4.75-4.75 2.62 0 4.75 2.12 4.75 4.75" fill="#fff"/><path d="M8 .5A7.49 7.49 0 00.5 8C.5 14.8 8 22 8 22s7.5-7.2 7.5-14C15.5 3.85 12.14.5 8 .5zM12.75 8c0 2.62-2.13 4.75-4.75 4.75-2.63 0-4.75-2.13-4.75-4.75 0-2.63 2.12-4.75 4.75-4.75 2.62 0 4.75 2.12 4.75 4.75z" stroke="#00441b" fill="none" stroke-linecap="round" stroke-linejoin="round"/></svg>