<svg xmlns="http://www.w3.org/2000/svg" width="160" height="160"><path d="M80 0c44.18 0 80 35.81 80 80 0 44.18-35.82 80-80 80-44.19 0-80-35.82-80-80C0 35.81 35.81 0 80 0" fill="#f2f5f3" fill-rule="evenodd"/><path d="M139 52.99v-5c-10.67 0-11.94 9.9-12 17-.02.56.01 6.5 0 7-.06 2.74-.41 4.06-2.07 5.66-3.66 3.48-10.93 3.34-10.93 3.34v5s9.16.22 14.35-4.7c2.67-2.54 3.56-6.2 3.65-10.3 0-.51-.01-5.42 0-6 .08-7.84 1.55-11.85 7-12m-93 28v5s-7.27-.14-10.94 3.34c-1.66 1.6-2.01 2.92-2.06 5.66-.02.5.01 6.44 0 7-.07 7.1-1.34 17-12 17v-5c5.44-.15 6.91-4.16 7-12 .01-.58-.02-5.49 0-6 .08-4.1.98-7.76 3.65-10.3 5.18-4.92 14.35-4.7 14.35-4.7" fill="#009640"/><path d="M107 111.59L96 118l-11-6.41V99h22zM66 42c0-9.03 6.58-17 14-17 7.41 0 14 7.97 14 17 0 9.01-6.59 17-14 17-7.42 0-14-7.99-14-17m9 69.59L64 118l-11-6.41V99h22zm24.12-61.14C97.61 20.22 80 21 80 21s-17.62-.78-19.12 29.45C59.36 80.69 46 81 46 81v50.72c0 5.11 4.11 9.28 9.18 9.28h49.63c5.07 0 9.19-4.17 9.19-9.28V81s-13.37-.31-14.88-30.55" fill="#5ea87c"/><path d="M53 99v12.59L64 118l11-6.41V99zm54 0v12.59L96 118l-11-6.41V99z" fill="#82a390"/><path d="M104 81H56m51 23H85m-10 0H53m32 7.6l11 6.4 11-6.4V99H85v12.6zm-32 0l11 6.4 11-6.4V99H53v12.6zm61-25.61s9.15.23 14.35-4.7c2.67-2.53 3.56-6.19 3.65-10.3.01-.51-.01-5.41 0-6 .07-7.84 1.55-11.84 7-12v-5c-10.67 0-11.93 9.91-12 17-.01.57.01 6.51 0 7-.06 2.75-.4 4.06-2.08 5.66C121.27 81.14 114 81 114 81m-68 0s-9.16-.23-14.36 4.69C28.97 88.23 28.08 91.89 28 96c-.01.51 0 5.41 0 6-.08 7.83-1.56 11.84-7 12v5c10.66 0 11.93-9.91 12-17 0-.57-.01-6.51 0-7 .05-2.75.39-4.06 2.07-5.66C38.72 85.85 46 85.99 46 85.99M80 25c-7.41 0-14 7.97-14 17 0 9.02 6.59 17 14 17s14-7.98 14-17c0-9.03-6.59-17-14-17zm0-4s17.6-.77 19.12 29.46C100.64 80.69 114 81 114 81v50.71c0 5.13-4.12 9.29-9.19 9.29H55.18c-5.07 0-9.18-4.16-9.18-9.29V81s13.35-.31 14.87-30.54C62.39 20.23 80 21 80 21z" stroke="#00441b" fill="none" stroke-width="2"/></svg>