<svg xmlns="http://www.w3.org/2000/svg" width="160" height="160"><path d="M80 0c44.18 0 80 35.81 80 80 0 44.18-35.82 80-80 80-44.19 0-80-35.82-80-80C0 35.81 35.81 0 80 0" fill="#f2f5f3" fill-rule="evenodd"/><path d="M32.75 25.16l-4.5 19.92 4 31.97 14.5-3.44L52 52.94zm14 48.45l-14.5 3.44L24 99.43l2.75 25.82 9.25-2.53 18.75-5.1 1.5-30.74zM114 101.15L95.75 95 95 117.13l25.5 6.63zM93.25 75.58l-15-1.49-22 12.79-1.5 30.74 21.5 6.64L95 117.13 95.75 95zm23.25-18.95L98 55.16l-4.75 20.42L95.75 95l18.25 6.15 8.5-23.12zm-41.75-9.59l-6.5 6.64 10 20.41 15 1.49L98 55.16zm30.5-21.64L83.5 32.04l-8.75 15L98 55.16l18.5 1.47 6.12-16.88 1.38-3.77zM61 19.99l-28.25 5.17L52 52.94l16.25.74 6.5-6.64 8.75-15zm17.25 54.1l-22 12.79-9.5-13.27L52 52.94l16.25.74z" fill="#82a390"/><path d="M136 39.75V139H36v-16.27l18.75-5.11 21.5 6.64L95 117.13l25.5 6.63-6.5-22.61 8.5-23.11-6-21.41 6.12-16.88z" fill="#fff"/><path d="M122.63 39.75H136V139H36v-16.27m57.25-47.16L98 55.16m-29.75-1.47l10 20.41m5.25-42.05l-8.75 15m-42-21.89L52 52.95m64.5 3.69L98 55.16l-23.25-8.11-6.5 6.64L52 52.95l-5.25 20.66M95 117.13L95.75 95m-41 22.62l1.5-30.74M114 101.15L95.75 95l-2.5-19.43-15-1.47-22 12.78-9.5-13.27-14.5 3.44m.5-51.89L61 20l22.5 12.05 21.75-6.64L124 35.98l-7.5 20.66 6 21.39-8.5 23.12 6.5 22.62-25.5-6.64-18.75 7.13-21.5-6.64-28 7.63L24 99.43l8.25-22.38-4-31.97 4.5-19.92z" stroke="#00441b" fill="none" stroke-width="2"/></svg>