<svg xmlns="http://www.w3.org/2000/svg" width="160" height="160"><path d="M80 0c44.18 0 80 35.81 80 80 0 44.18-35.82 80-80 80-44.19 0-80-35.82-80-80C0 35.81 35.81 0 80 0" fill="#f2f5f3" fill-rule="evenodd"/><path d="M103.33 80.5c0 1.62-.08 3.23-.23 4.8-.47 4.97-1.67 9.57-3.43 13.61-4.09 9.38-11.22 15.59-19.33 15.59-8.12 0-15.25-6.21-19.34-15.59-1.76-4.04-2.96-8.64-3.43-13.61a50.595 50.595 0 01.29-12.07c.46-3.1 1.2-6.04 2.18-8.76h.02c4-3.17 11.58-4.97 20.28-4.97 8.69 0 16.26 1.8 20.28 4.97a43.92 43.92 0 012.18 8.8c.35 2.32.53 4.74.53 7.23" fill="#fff"/><path d="M100.62 64.48c-4.02-3.17-11.6-4.98-20.28-4.98-8.71 0-16.29 1.81-20.28 4.98h-.01c2.27-6.28 5.83-11.39 10.18-14.53 3.04-2.21 6.48-3.45 10.11-3.45 3.43 0 6.71 1.12 9.64 3.12 4.54 3.11 8.29 8.35 10.64 14.86" fill="#5ea87c"/><path d="M93.33 45.5l-3.35 4.11m-19.75.34l-3.9-4.45m33.33 53.41l4.67 2.59 3 6m-4.24-22.2l6.24.2 5.33-2M102.8 73.27l3.86-1.44 2.67-5.33m-58 0l2 5 4.53 1.73M45.33 83.5l6 2 6.24-.2m-4.24 22.2l3-6L61 98.91M80.33 59.5v55m20.29-50.03h-.01c-4.01-3.16-11.59-4.97-20.28-4.97-8.69 0-16.27 1.81-20.28 4.97h-.01m43.29 16.03c0 18.77-10.3 34-23 34s-23-15.23-23-34c0-18.78 10.3-34 23-34s23 15.22 23 34z" stroke="#00441b" fill="none" stroke-width="1.5" stroke-linecap="round" stroke-linejoin="round"/><path d="M119.81 114.16L45.84 40.18C55.02 32.28 66.96 27.5 80 27.5c28.94 0 52.5 23.55 52.5 52.5 0 13.03-4.79 24.97-12.69 34.16M27.5 80c0-13.04 4.78-24.97 12.68-34.16l73.98 73.97c-9.19 7.9-21.13 12.69-34.16 12.69-28.95 0-52.5-23.56-52.5-52.5M80 19.5c-33.36 0-60.5 27.14-60.5 60.5 0 33.35 27.14 60.5 60.5 60.5 33.35 0 60.5-27.15 60.5-60.5 0-33.36-27.15-60.5-60.5-60.5" fill="#5ea87c"/><path d="M119.81 114.16L45.84 40.18C55.02 32.28 66.96 27.5 80 27.5c28.94 0 52.5 23.55 52.5 52.5 0 13.03-4.79 24.97-12.69 34.16zM27.5 80c0-13.04 4.78-24.97 12.68-34.16l73.98 73.97c-9.19 7.9-21.13 12.69-34.16 12.69-28.95 0-52.5-23.56-52.5-52.5zM80 19.5c-33.36 0-60.5 27.14-60.5 60.5 0 33.35 27.14 60.5 60.5 60.5 33.35 0 60.5-27.15 60.5-60.5 0-33.36-27.15-60.5-60.5-60.5z" stroke="#00441b" fill="none" stroke-width="2"/></svg>