<svg xmlns="http://www.w3.org/2000/svg" width="160" height="160"><style>.st1{fill:#82a390}</style><path d="M80 0c44.18 0 80 35.81 80 80 0 44.18-35.82 80-80 80-44.19 0-80-35.82-80-80C0 35.81 35.81 0 80 0" fill="#f2f5f3" fill-rule="evenodd"/><path class="st1" d="M80 128c-19.16-5.81-45.05-26.34-45-59.98 0-6.25-.05-20.41 1.81-26.33C37.04 40.95 69.3 32 80 32c10.69 0 42.94 8.95 43.18 9.69 1.86 5.92 1.81 20.08 1.82 26.33.04 33.64-25.85 54.17-45 59.98m50.8-89.74C129.11 32.9 91.84 24 80 24c-11.85 0-49.12 8.9-50.82 14.26C27.08 44.97 27 60.94 27 68c-.05 35.66 26.94 61.71 51.98 68.32L80 137l1.01-.68c25.04-6.61 52.03-32.66 51.99-68.32-.01-7.06-.09-23.03-2.2-29.74"/><path class="st1" d="M125 68.01c.04 33.65-25.85 54.18-45 59.99-19.16-5.81-45.05-26.34-45-59.99.01-6.24-.05-20.41 1.81-26.33.24-.73 32.49-9.69 43.19-9.69 10.69 0 42.94 8.96 43.18 9.69 1.86 5.92 1.8 20.09 1.82 26.33"/><path d="M80 32c-10.69 0-42.95 8.96-43.18 9.68C34.95 47.61 35 61.77 35 68.02c-.04 33.65 25.85 54.17 45 59.98 19.14-5.81 45.03-26.33 45-59.98-.01-6.25.04-20.41-1.83-26.34C122.95 40.96 90.69 32 80 32zm0 105l-1.02-.68C53.93 129.71 26.95 103.67 27 68.01c0-7.06.08-23.04 2.19-29.75C30.88 32.9 68.14 24 80 24c11.85 0 49.11 8.9 50.8 14.26 2.11 6.71 2.19 22.69 2.2 29.75.04 35.66-26.94 61.7-51.99 68.31L80 137z" stroke="#00441b" fill="none" stroke-width="2"/><path d="M83.5 73c0-1.94-1.57-3.5-3.5-3.5-1.94 0-3.5 1.56-3.5 3.5 0 1.93 1.56 3.5 3.5 3.5 1.93 0 3.5-1.57 3.5-3.5zm-7.35 0H50m30 31V76.84M110 73H83.85M80 42v27.15m-2.73 1.12L61.19 54.19m0 37.61l16.08-16.08M98.8 91.8L82.72 75.72M98.8 54.19L82.72 70.27M86 101l-6-6-6 6m12-6l-6-6-6 6m0-50l6 6 6-6m0 6l-6 6-6-6M52 79l6-6-6-6m6 12l6-6-6-6m50 0l-6 6 6 6m-6 0l-6-6 6-6m-42.05-5.56h8.49v-8.49M64.2 65.68h8.48V57.2m28.36 27.35h-8.49v8.49m-4.24-4.25v-8.48h8.48m-5.24-27.36v8.49h8.49M87.31 57.2v8.48h8.48M68.44 93.04v-8.49h-8.49m4.25-4.24h8.48v8.48" stroke="#fff" fill="none" stroke-width="2"/></svg>