<svg xmlns="http://www.w3.org/2000/svg" width="38" height="48"><style>.st1{fill:#82a390}</style><path d="M27 8.01v-.03c0-1.09-.9-1.99-1.99-1.99H12.98c-1.09 0-1.98.9-1.98 1.99v.03c0 1.09.89 1.98 1.98 1.98h12.03C26.1 9.99 27 9.1 27 8.01M1 .99h36v46H1z" fill="#fff"/><path class="st1" d="M11.53 40.02c4.55-.3 8.16-2.49 10.75-6.51a.469.469 0 00-.43-.72c-.41.03-.89.06-1.32.07-.82.01-1.79-.04-2.83-.2-2.49-.37-5.45-1.38-8.07-3.78-1.98-1.83-3.24-3.75-4.02-5.59-.13-.32-.61-.22-.61.13v15.4c0 .2.12.37.31.44.99.31 3.39.94 6.22.76m12.6-10.79c1.17-4.08 3.62-5.64 8.02-4.9.44.07.85-.26.85-.71v-8.61c0-.56-.46-1.02-1.02-1.02H10.35c-.37 0-.46.52-.11.64 6.49 2.32 11.49 7.8 13.13 14.58.1.39.65.41.76.02"/><path class="st1" d="M32.33 27.3c-.59.67-1.43 1.5-2.57 2.36-1.72 1.3-2.91 1.64-4.07 2.18-.25.12-.87.4-1.23.7-.84.72-1.69 2.36-2.52 3.38-3.25 3.98-7.34 5.06-10.38 5.26a18.715 18.715 0 01-6.33-.74c-.12-.03-.23.06-.23.19v.38c0 .54.44.99.98.99h26.01c.56 0 1.01-.45 1.01-1.01V27.56c0-.36-.44-.52-.67-.26"/><path d="M27 8.01v-.03c0-1.09-.9-1.99-1.99-1.99H12.98c-1.09 0-1.98.9-1.98 1.99v.03c0 1.09.89 1.98 1.98 1.98h12.03C26.1 9.99 27 9.1 27 8.01zM1 .99h36v46H1z" stroke="#00441b" fill="none" stroke-width="2"/></svg>