<svg xmlns="http://www.w3.org/2000/svg" width="160" height="160"><path d="M80 0c44.18 0 80 35.81 80 80 0 44.18-35.82 80-80 80-44.19 0-80-35.82-80-80C0 35.81 35.81 0 80 0" fill="#f2f5f3" fill-rule="evenodd"/><path d="M133 73v67c0-29.46-23.73-54-53-54s-53 24.54-53 54V73c0-29.46 23.73-53 53-53s53 23.54 53 53" fill="#fff"/><path d="M133 140H27c0-29.46 23.73-54 53-54s53 24.54 53 54" fill="#82a390"/><path d="M93.91 93.83c-3.41 3.14.07 5.79-3.66 8.89-5.55 4.58-6.8-1.31-6.8-1.31s-5.44-2.57-.45-7.97c2.68-2.88 7.01-1.56 10.91.39m-22.16 18.5c-4.34 4.25-7.17-.42-11.5 3.42-1.92-5.09-3-10.66.91-13.59 7.34-5.5 9.84 1.59 9.84 1.59s7.15 2.3.75 8.58" fill="#009640"/><path d="M93.62 112.72a3.002 3.002 0 01-2.79 4.11c-1.65 0-3-1.35-3-3 0-.35.05-.7.18-1.02-.06.02-.13.02-.18.02-1.65 0-3-1.35-3-3s1.35-3 3-3c.05 0 .12 0 .18.01.1-.3.25-.57.44-.82.54-.72 1.41-1.19 2.38-1.19 1.36 0 2.5.9 2.87 2.14a2.98 2.98 0 012.13 2.86c0 1.39-.93 2.55-2.21 2.89" fill="#5ea87c"/><path d="M89.77 94.94c-5.17 2.2-6.31 6.47-6.31 6.47s-3.47 2.33-3.47 9.83m-16 16.75h3c2.22-4.4 7.57-7.92 12.83-7.92h.17c5.2.07 9.8 3.57 12 7.92h3m-11.53-26.58s1.24 5.9 6.78 1.31c3.75-3.11.26-5.75 3.68-8.89-3.9-1.95-8.25-3.27-10.91-.39-5 5.39.45 7.97.45 7.97zm-3.47 21.58v-15s0-9.25-9-4.25c0 0-4.54.16-8.14 5.95m-1.69-7.53c-3.91 2.94-2.83 8.5-.92 13.58 4.34-3.83 7.17.84 11.5-3.41 6.41-6.28-.75-8.59-.75-8.59s-2.5-7.08-9.83-1.58zM88 106.83c.4-1.17 1.52-2.01 2.82-2.01 1.36 0 2.5.91 2.88 2.14m-2.87 3.87c-1.66 0-3 1.34-3 3s1.34 3 3 3 3-1.34 3-3-1.34-3-3-3zm-.18 0v-.02c.11-.31.17-.64.17-.99 0-.61-.18-1.18-.5-1.65-.5-.77-1.35-1.29-2.32-1.34-.06-.01-.12-.01-.18-.01-1.65 0-3 1.35-3 3 0 1.66 1.35 3 3 3 .06 0 .12 0 .18-.01m-8.01-1.57s1-5.75 6.59-5.58c0 0 3.32-.06 3.74 2.51a3.01 3.01 0 012.5-1.35c.31 0 .6.05.88.14 1.23.37 2.12 1.52 2.12 2.86 0 1.39-.93 2.55-2.21 2.89M26.99 94.99c0-29.45 23.73-54 53-54 29.28 0 53 24.55 53 54m-106 23c0-29.45 23.73-54 53-54 29.28 0 53 24.55 53 54m-106 22c0-29.45 23.73-54 53-54 29.28 0 53 24.55 53 54m0-67c0-29.45-23.72-53-53-53-29.27 0-53 23.55-53 53v67h106v-67z" stroke="#00441b" fill="none" stroke-width="2"/></svg>