<svg xmlns="http://www.w3.org/2000/svg" width="36" height="56"><style>.st0{fill:#fff}</style><path class="st0" d="M24.71 55H1V17h14v28.98c0 4.98 4.58 9.02 9.71 9.02"/><path d="M35 9.02v36.47c0-4.98-4.87-8.5-10-8.5-5.14 0-10 3.52-10 8.5V9.02C15 4.04 19.86.99 25 .99c5.13 0 10 3.05 10 8.03" fill="#82a390"/><path d="M29 48.23c0 2-2.24 3.61-4.29 3.61S21 50.22 21 48.23v-2.25c0-1.99 1.94-3.61 4-3.61 2.05 0 4 1.62 4 3.61zM25 37c-5.14 0-10 4-10 8.98S19.58 55 24.71 55C29.84 55 35 50.96 35 45.98 35 41 30.12 37 25 37" fill="#5ea87c"/><path class="st0" d="M29 45.98v2.25c0 2-2.24 3.61-4.29 3.61S21 50.23 21 48.23v-2.25c0-1.99 1.66-3.61 3.71-3.61S29 43.99 29 45.98"/><path d="M15 17H1v38h23.71M25 44.63c-2.06 0-4 1.61-4 3.6s1.94 3.61 4 3.61c2.05 0 4-1.62 4-3.61 0-1.99-1.95-3.6-4-3.6zm4 3.6v-2.25c0-1.99-1.95-3.61-4-3.61-2.06 0-4 1.62-4 3.61v2.25m14-2.25C35 50.96 30.12 55 25 55c-5.13 0-10-4.04-10-9.02 0-4.98 4.87-9.02 10-9.02 5.12 0 10 4.04 10 9.02zm-20 0V10.01C15 5.03 19.87 1 25 1c5.12 0 10 4.03 10 9.01v35.97" stroke="#00441b" fill="none" stroke-width="2"/></svg>