<svg xmlns="http://www.w3.org/2000/svg" width="150.26" height="191.67"><path d="M35.07 139.62c24.41-1.6 43.78-13.35 57.67-34.91 1.13-1.75-.24-4.04-2.32-3.88-2.19.17-4.78.34-7.08.37-4.41.05-9.58-.19-15.2-1.04-13.36-2-29.22-7.41-43.27-20.32-10.64-9.77-17.38-20.1-21.56-29.96-.74-1.74-3.31-1.21-3.31.68v82.63c0 1.07.68 2.02 1.69 2.34 5.3 1.68 18.2 5.09 33.38 4.09" fill="#f4832f"/><path d="M102.68 81.75c6.25-21.88 19.41-30.27 43-26.31 2.37.4 4.55-1.39 4.55-3.8V5.47c0-3.03-2.45-5.47-5.47-5.47H28.72c-1.98 0-2.45 2.74-.58 3.41C62.97 15.82 89.8 45.24 98.6 81.61c.51 2.12 3.49 2.23 4.08.14m43.96-10.35c-3.15 3.6-7.64 8.03-13.75 12.64-9.23 6.97-15.61 8.8-21.84 11.69-1.37.64-4.69 2.18-6.6 3.79-4.52 3.82-9.06 12.65-13.55 18.14-17.45 21.32-39.34 27.14-55.66 28.17-1.98.12-3.91.18-5.8.18-12.38 0-22.62-2.44-28.16-4.1a1 1 0 00-1.28.97v2.06c0 2.92 2.36 5.29 5.28 5.29h139.58c2.97 0 5.37-2.4 5.37-5.37v-72.1c0-1.89-2.34-2.79-3.59-1.36" fill="#009342"/><path d="M132 169.32c0-2.49.76-4.45 2.3-5.88 1.53-1.44 3.71-2.15 6.54-2.15 4.38 0 7.19 1.72 8.4 5.16.25.66.03 1.11-.65 1.36l-1.7.59c-.37.12-.65.14-.83.04-.19-.09-.35-.32-.5-.69-.68-1.9-2.25-2.85-4.72-2.85-1.59 0-2.81.38-3.67 1.13-.85.75-1.28 1.84-1.28 3.26v6.83c0 1.43.43 2.52 1.28 3.28.86.76 2.08 1.14 3.67 1.14 2.45 0 4.02-.95 4.72-2.87.17-.39.34-.63.53-.73.19-.09.46-.06.83.08l1.67.59c.68.24.91.7.68 1.36-1.21 3.46-4.03 5.19-8.43 5.19-2.83 0-5.01-.72-6.54-2.15-1.54-1.43-2.3-3.4-2.3-5.92zm-1.46 13.32c.37.71.2 1.06-.52 1.06h-1.79c-.68 0-1.16-.06-1.43-.17-.26-.12-.49-.37-.68-.76l-3.12-6.28c-.43-.84-.89-1.41-1.37-1.71-.49-.3-1.25-.45-2.31-.45h-1.57v8.31c0 .4-.08.67-.23.82-.16.16-.43.24-.82.24h-1.76c-.4 0-.67-.08-.84-.24-.16-.15-.25-.42-.25-.82V162.8c0-.39.09-.66.25-.82.17-.15.44-.23.84-.23h1.76c.39 0 .66.08.82.23.15.16.23.43.23.82v8.01h1.64l6.21-8.19c.27-.37.53-.61.79-.71.25-.11.69-.16 1.31-.16h1.98c.35 0 .57.1.66.31.1.21.04.44-.17.71l-6.89 8.81c1.32.58 2.43 1.75 3.34 3.52zm-21.23-20.89c.39 0 .67.08.84.23.16.16.24.43.24.82v1.52c0 .39-.08.66-.24.82-.17.15-.45.23-.84.23h-9.46v5.41h8.01c.39 0 .66.07.82.23.15.15.23.43.23.82v1.51c0 .39-.08.67-.23.82-.16.16-.43.23-.82.23h-8.01v5.69h9.8c.39 0 .67.08.82.23.15.16.23.43.23.82v1.51c0 .4-.08.67-.23.82-.15.16-.43.24-.82.24H97.04c-.39 0-.67-.08-.83-.24-.17-.15-.25-.42-.25-.82V162.8c0-.39.08-.66.25-.82.16-.15.44-.23.83-.23zm-16.97 0c.39 0 .67.08.82.23.16.16.23.43.23.82v1.52c0 .39-.07.66-.23.82-.15.15-.43.23-.82.23h-5.31v17.27c0 .4-.08.67-.23.82-.16.16-.43.24-.82.24h-1.8c-.39 0-.66-.08-.81-.24-.16-.15-.24-.42-.24-.82v-17.27h-5.31c-.39 0-.67-.08-.82-.23-.16-.16-.23-.43-.23-.82v-1.52c0-.39.07-.66.23-.82.15-.15.43-.23.82-.23zm-21.14 7.57c0-1.42-.42-2.51-1.28-3.27-.85-.76-2.08-1.15-3.66-1.15-1.59 0-2.81.38-3.66 1.13-.86.75-1.29 1.85-1.29 3.29v6.8c0 1.45.43 2.54 1.29 3.3.85.75 2.07 1.12 3.66 1.12 1.58 0 2.81-.38 3.66-1.14.86-.76 1.28-1.85 1.28-3.28zm-13.78.03c0-2.51.77-4.48 2.3-5.91 1.54-1.44 3.72-2.15 6.54-2.15 2.8 0 4.97.71 6.5 2.15 1.54 1.43 2.31 3.4 2.31 5.91v6.74c0 2.52-.77 4.49-2.31 5.92-1.53 1.43-3.7 2.15-6.5 2.15-2.82 0-5-.72-6.54-2.15-1.53-1.43-2.3-3.4-2.3-5.92zm-10.01 3.1c1.13 0 2.01-.31 2.64-.93.63-.62.94-1.49.94-2.6s-.31-1.98-.94-2.61c-.63-.63-1.51-.94-2.64-.94H42.4v7.08zm.37-10.7c2.24 0 4.02.64 5.33 1.92 1.31 1.28 1.96 3.03 1.96 5.25 0 2.23-.65 3.97-1.96 5.24s-3.09 1.9-5.33 1.9H42.4v6.58c0 .4-.08.67-.23.82-.16.16-.43.24-.82.24h-1.76c-.4 0-.67-.08-.84-.24-.16-.15-.25-.42-.25-.82V162.8c0-.39.09-.66.25-.82.17-.15.44-.23.84-.23zm-12.89 0c.39 0 .66.08.82.23.15.16.23.43.23.82v1.52c0 .39-.08.66-.23.82-.16.15-.43.23-.82.23h-8.53v17.27c0 .4-.08.67-.23.82-.16.16-.43.24-.82.24h-1.76c-.4 0-.67-.08-.84-.24-.16-.15-.25-.42-.25-.82V162.8c0-.39.09-.66.25-.82.17-.15.44-.23.84-.23zm-23.98 7.33c-.19-.56-.34-1.15-.47-1.78-.12-.63-.2-1.12-.25-1.47l-.03-.52h-.21c0 1.17-.23 2.42-.68 3.74l-2.38 6.55h6.36zm9.08 13.6c.25.68.01 1.02-.71 1.02h-1.61c-.63 0-1.08-.07-1.34-.19s-.45-.37-.57-.74l-1.42-3.99H5.81l-1.46 3.99c-.12.37-.31.62-.57.74-.26.12-.7.19-1.34.19H1.02c-.73 0-.96-.34-.72-1.02l7.73-20.09c.15-.35.3-.59.48-.7.17-.11.45-.17.82-.17h1.64c.37 0 .65.06.83.17.19.11.34.34.47.67z" fill="#1a150f"/></svg>