<svg xmlns="http://www.w3.org/2000/svg" width="273.42" height="417.51"><style>.st2{fill:#4d5d77}.st1{fill:#577764}.st4{fill:#009640}.st3{fill:#5ea87c}.st0{fill:#fff}</style><path class="st0" d="M140.73 379.58l-.65.19c-.87.22-1.64.59-1.64.59s-3.96 2.26-5.99 1.91c-1.59-.29-4.6-2.72-4.6-2.72l-3.69-1.67z"/><path class="st1" d="M142.53 391s-13.42 3.1-43.89 2.21c.3-4.92 2.89-3.83 3.16-4.17.1-.14 10.5-2.55 13.49-4.23 1.62-.91 3.4-1.91 5.09-2.81 3.3-1.78 5.23-3.66 5.79-3.66.29 0 1.68 1.21 1.68 1.21s3.01 2.43 4.6 2.72c2.03.35 5.99-1.91 5.99-1.91s.77-.37 1.64-.59c.85-.22 1.77-.3 2.13.23.68.98.32 11 .32 11"/><path class="st2" d="M197.99 401.1c-3.63 2.4-12.99 2.84-16.22.53-1.21-.87-2.35-2.38-2.33-3.89 1.09 1.16 4.09 3.55 9.8 2.93 5.31-.57 8.98-2.06 10.82-2.97-.51 1.55-.18 2.14-2.07 3.4"/><path class="st1" d="M200.06 397.7c-1.84.91-5.51 2.4-10.82 2.97-5.71.62-8.71-1.77-9.8-2.93-.01-.09-.01-.19-.01-.28 0-4.28 1.06-16.46 1.06-16.46s-1.06-4.5-.63-6.38c.04-.16.11-.31.23-.46 1.23-1.62 6.59-2.75 6.59-2.75s2.99 0 4.63 1.91c.41.48.75 1.08.92 1.84 0 0 5.93 10.25 7.04 14.14.64 2.27.64 5.41.79 8.4"/><path class="st0" d="M191.31 373.32c-1.64-1.91-4.63-.91-4.63-.91s-5.36.13-6.59 1.75l-.59-1.01 11.28-1.23z"/><path class="st2" d="M142.34 395.09c-.22.28-3.75.45-8.45.55h-.37c-2.1-.39-.1-1.39-2.19-.93-.14 0-24.64 1-26.44.93-3.41-.12-5.64.34-6.27-1.77-.04-.15 0-.45.02-.66 30.47.89 43.89-2.21 43.89-2.21l.05 1.08s.4 2.18-.24 3.01"/><path class="st0" d="M224.73 221.66c-.04.22-.09.42-.14.62-.81 2-1.59 2.62-3.19 4.16-.18.13-.34.25-.5.36a6.1 6.1 0 00-.32.22c-2.42 3.04-5.86 1.94-7.01-1.76-.06-.12-1.56.91-2.99-7.91h-.01c-.78 1.41-1.69 2.89-2.21 3.24-1.07.75-2.1-1.5-1.11-4.11.56-1.41.68-2.84.7-3.63.01-.43.14-.85.39-1.2l2.25-4.89c.18-.24.31-.53.36-.85l-.02-8.43c.09 0 .19.01.28.02 3.28.35 6.71 1 9.35 1.41.13.02.26.04.38.06l-.09.61.13 3.83c.12.29.3.56.53.79 1.02 1 4.04 4.28 4.15 8.66.07 3.23-.36 6.42-.93 8.8"/><path class="st3" d="M177.57 49.84c-.03.86-.07 1.82-.13 2.84-.33 5.49.87 6.83-.26 10.82-.5 1.76-4.64 8.41-4.64 8.41s-6.92 6.8-10.31 6.79c-3.78-.02-11.86-8.37-11.86-8.37s-3.43-5.48-3.99-7.25c-.41-1.28-.16-3.91-.2-5.4-.06-2.39-.07-5.41-.1-7.66.34-.15.66-.43.91-.7 1.22.85 2.75 9.84 11.08 7.01 1.35-.45 2.77-.62 4.19-.62 1.52 0 3.03.26 4.48.72 7.83 2.5 7.59-6.28 8.8-7.11.44.48 1.11 1.01 1.74.72.09-.04.19-.11.29-.2"/><path class="st0" d="M172.71 77.15c0 .26 0 .51-.03.76-.48 4.84-5.46 8.32-12.18 7.65-.46-.04-.89-.1-1.33-.18h-.01c-5.9-1.07-9.42-5.6-9.15-10.02l.36-5.03s8.08 8.43 11.86 8.37c3.38-.05 10.31-6.79 10.31-6.79l.13 4.34zm-123.8-2.06c-1.94.16-4.02.62-5.49 1.01 1.43 3.78 4.21 11.6 3.56 13.35-.87 2.32-.29 2.9-2.33 4.07-2.03 1.16-11.92-.58-13.66-4.95-1.75-4.36-5.24-9.01-5.24-9.01s.12-1.21.68-2.85c.98-2.82 3.29-6.91 8.63-8.2 8.43-2.04 10.16 2.76 12.48 2.76 1.11 0 2.27.8 2.79 1.67h.01c.57.96.4 2-1.43 2.15"/><path class="st3" d="M178.08 36.41c-.2.75-.3 1.66-.32 2.65-1.61.05-2.59 3.18-2.59 3.18l.44-12.96s-9.54-2.04-11.82-2.06h-3.07c-2.29.02-12.83 2.06-12.83 2.06l-.55 12.96s-.17-1.84-1.44-2.72c.05-6.2-.48-12.11-.48-12.11l-2.34-1.33s-5 3.17-5.33-.17c-.33-3.33 2-8.5 7.67-11.33 5.66-2.83 15.5 1.83 19.5 1.67 4-.17 8-1.17 12.16 3.83 4.17 5 2.17 12 1 16.33"/><path class="st0" d="M179.05 47.17c-.4 1.43-.98 2.29-1.49 2.67-.1.09-.2.16-.29.2-.63.29-1.3-.24-1.74-.72-1.21.83-.97 9.61-8.8 7.11-1.45-.46-2.96-.72-4.48-.72-1.42 0-2.84.17-4.19.62-8.33 2.83-9.86-6.16-11.08-7.01-.25.27-.57.55-.91.7-.27.12-.56.15-.83.02-.55-.26-1.31-1.15-1.78-2.87-.64-2.34-1.05-2.89-.58-5.29.24-1.2.62-2.28 1.25-2.66.54-.32 1.16-.12 1.77.3 1.27.88 1.44 2.72 1.44 2.72l.55-12.96s10.54-2.04 12.83-2.06h3.07c2.28.02 11.82 2.06 11.82 2.06l-.44 12.96s.98-3.13 2.59-3.18c.22-.01.42.04.62.16.62.38 1.01 1.46 1.25 2.66.47 2.4.06 2.95-.58 5.29"/><path class="st3" d="M253.55 71.03c-1.37.47-71.35 7.28-77.33 8.48-.17.04-.34.07-.51.11-1.36-1.31-3.02-1.71-3.02-1.71.03-.25.03-.5.03-.76l-.17-5.24s4.37-7.52 4.62-8.41c1.1-3.86.56-6.87.41-10.84 3.08-.5 70.67-8.97 71.92-9.12 3.47-.41 13.67 17.96 4.05 27.49"/><path class="st0" d="M159.17 85.38s-3.25 4.62-5 7.12c-6.81-2.58-10.17-11.92-10.55-13.04l6.24-4.11.15.01c-.27 4.42 3.25 8.95 9.15 10.02zm18.03-2.83c-.03.22-.1.46-.21.7-1.71 3.73-12.57 10.25-12.57 10.25l-5.25-8.12c.44.08.87.14 1.33.18 6.72.67 11.7-2.81 12.18-7.65 0 0 1.66.4 3.02 1.71.61.59 1.16 1.37 1.47 2.38.05.17.06.35.03.55m47.96 116.34c0 .62-1.71.47-4.22.08-.12-.02-.25-.04-.38-.06-2.64-.41-6.07-1.06-9.35-1.41-.09-.01-.19-.02-.28-.02v-.01c-1.63-.16-3.23-.25-4.67-.18-.22-23.82-9.34-49.73-15.34-57.64-.24-.31-.47-.62-.7-.9-.25 11.8-.47 26.38-.65 39.75-3.09-6.54-6.39-14.21-7.15-18.5-1.36-7.72 4.56-60.57 6.03-72.48 5 3.11 9.57 6.92 11.87 9.77 9.16 11.35 14.91 30.81 20.36 52.27 5.44 21.46 4.48 47.73 4.48 49.33"/><path class="st4" d="M192.02 371.75l-1.23.17-2.16.23c-.69-.02-1.29.09-1.64.18l-.03.01-.94.1-1.89.2-.27.04-4.35.47-3.02-.4-8.36-64.14L155 248.26l-5.12 33.94-6.89 97.63-1.16-.13-.83-.09-.26-.03-16.57-1.7-1.17-.21 1.43-87.09 1.75-59.83 1.25-27-.17-3.44v-.04l-1.27-25.89c2.92-5.48 5.87-11.58 7.44-16.38 3.17-9.71-2.58-57.6-4.44-72.24v-.01c2.53-1.24 5.23-2.46 7.59-3.49 1.91 13.9 9.87 71.27 11.85 71.49 2.25.25 13 .75 20.25-1.5 6.72-2.09 11.94-60.1 12.65-68.49 2.35.98 4.79 2.29 7.13 3.76-1.47 11.91-7.39 64.76-6.03 72.48.76 4.29 4.06 11.96 7.15 18.5-.28 20.71-.46 38.5-.46 38.5l.88 7.01 1.49 59.13z"/><path class="st0" d="M181.33 83.76c-.72 8.39-5.94 66.4-12.66 68.49-7.25 2.25-18 1.75-20.25 1.5-1.98-.22-9.94-57.59-11.84-71.49 3.73-1.62 6.68-2.78 7-2.91 0 0 .01.04.04.11.38 1.12 3.74 10.46 10.55 13.04 1.75-2.5 5-7.12 5-7.12l5.25 8.12s10.86-6.52 12.57-10.25l2.87-.07c.48.17.98.37 1.47.58M133.42 158c-1.56 4.8-4.52 10.9-7.44 16.38l-1.73-35.3-3.33-15.9-.21.04-12.08-8.18-12.8.87-26.17-5.82-8.5-7.06c9.08-2.72 19.99-5.32 33.07-7.55l-.04-.22 26.29-4.46c1.67-1.47 4.94-3.29 8.5-5.04 1.86 14.64 7.61 62.53 4.44 72.24"/><path class="st1" d="M94.23 95.48c-13.08 2.23-23.99 4.83-33.07 7.55-33.73 10.1-42.14 21.78-42.14 21.78-8.03 3.34-16.07-5.47-17.96-19.68-1.5-11.37 2.47-22.76 8.9-25.43 1.14-.48 2.28-.57 3.38-.31 3.07.67 5.8 3.98 7.26 8.88-4.57.08-8.07 1.6-8.51 1.8l-.04.02c-2.64 1.1-4.27 5.76-3.65 10.42.78 5.82 4.07 9.43 7.36 8.06l78.43-13.31z"/><path class="st1" d="M15.77 108.57c-3.29 1.37-6.58-2.24-7.37-8.06-.61-4.66 1.02-9.32 3.66-10.42 0 0 .01-.01.04-.02.44-.2 3.94-1.72 8.51-1.8.36 1.25.66 2.59.85 4.02.97 7.28-1.58 14.57-5.69 16.28"/><path class="st3" d="M150.37 70.32l-.36 5.04-.15-.01-6.24 4.11c-.03-.07-.04-.11-.04-.11-.32.13-3.27 1.29-7 2.91-2.37 1.03-5.06 2.25-7.6 3.49v.01c-3.56 1.75-6.83 3.57-8.5 5.04l-26.29 4.46-78.43 13.31c4.11-1.71 6.66-9 5.69-16.28-.19-1.43-.48-2.77-.85-4.02-1.46-4.9-4.19-8.21-7.26-8.88l12.93-2.19c-.42 1.39-.52 2.36-.52 2.36s3.49 4.65 5.24 9.01c1.74 4.37 11.63 6.11 13.66 4.95 2.04-1.17 1.46-1.75 2.33-4.07.65-1.75-2.13-9.57-3.56-13.35 1.47-.39 3.55-.85 5.49-1.01 1.83-.15 2-1.19 1.43-2.15 30.73-4.86 67.83-10.78 95.5-15.21-.01 2.07.09 4.01.53 5.35.58 1.76 4 7.24 4 7.24"/><path class="st4" d="M175.52 7.52c-4.75-.85-7.86-1.31-13.2-1.31-4.17 0-8.21.28-12.05.82.14-1.82 1.5-2.72 2.38-3.74 2-2.33 10.11-3.53 18.11-1.54 4.09 1.02 4.21 3.65 4.76 5.77"/><path class="st4" d="M204.82 26.96c0 8.34-11.25 14.02-25.09 17.75.16-.78.16-1.54-.09-2.83-.24-1.2-.63-2.28-1.25-2.66a.95.95 0 00-.59-.15c.05-.97.15-2.12.29-2.66 1.17-4.33 3.17-11.33-1-16.33-4.16-5-8.16-4-12.16-3.83-4 .16-13.84-4.5-19.5-1.67-5.67 2.83-8 8-7.67 11.33.32 3.34 5.33.17 5.33.17l2.34 1.33s.49 6.37.48 12.37c-.04-.05-.08-.09-.12-.13-.49-.51-1.06-.78-1.65-.43-.63.38-1.01 1.46-1.25 2.66-.24 1.25-.25 1.99-.12 2.75-14.63-3.52-24.95-9.04-24.95-17.67 0-10.09 13.73-17.34 32.45-19.93 3.84-.54 7.88-.82 12.05-.82 5.34 0 8.45.46 13.2 1.31 17.09 3.08 29.3 9.93 29.3 19.44"/><path d="M179.72 44.71c13.84-3.73 25.09-9.41 25.09-17.75 0-9.51-12.21-16.36-29.3-19.44-4.74-.85-7.86-1.31-13.2-1.31-4.17 0-8.21.28-12.04.82-18.73 2.59-32.46 9.84-32.46 19.93 0 8.63 10.32 14.15 24.96 17.67m32.74-37.11c-.55-2.12-.66-4.75-4.75-5.77-8-1.99-16.12-.79-18.12 1.54-.87 1.02-2.24 1.92-2.37 3.74m-124 70.17l-12.93 2.19m7.26 8.88c-4.57.08-8.07 1.6-8.51 1.8l-.04.02m113.93 84.29c2.92-5.48 5.88-11.58 7.44-16.38 3.17-9.71-2.58-57.6-4.44-72.24v-.01m52.35-1.99c-.72 8.39-5.94 66.4-12.66 68.49-7.25 2.25-18 1.75-20.25 1.5-1.98-.22-9.94-57.59-11.84-71.49M12.9 94.35c-1.08.45-1.75 2.36-1.49 4.26.32 2.39 1.66 3.87 3.01 3.31 1.69-.71 2.73-3.69 2.33-6.67-.49-3.71-2.57-6-4.66-5.18l-.04.02c-2.64 1.1-4.27 5.76-3.65 10.42.78 5.82 4.07 9.43 7.36 8.06 4.11-1.71 6.66-9 5.69-16.28-.19-1.43-.48-2.77-.85-4.02-1.46-4.9-4.19-8.21-7.26-8.88-1.1-.26-2.24-.17-3.38.31-6.43 2.67-10.4 14.06-8.9 25.43 1.89 14.21 9.93 23.02 17.96 19.68 0 0 8.41-11.68 42.14-21.78 9.08-2.72 19.99-5.32 33.07-7.55m78.45-17.57s1.66.4 3.02 1.71c.61.59 1.16 1.37 1.47 2.38.05.17.06.35.03.55-.42 3.53-12.78 10.95-12.78 10.95l-5.25-8.12s-3.25 4.62-5 7.12c-6.81-2.58-10.17-11.92-10.55-13.04-.03-.07-.04-.11-.04-.11m6.28-4l-6.24 4.11-.45.29m-15.9 123.24c-.01-.86-.01-1.76-.02-2.68v-.04l-.03-2.79m51.21-114.79c.94.29 1.91.65 2.9 1.07 2.34.98 4.78 2.29 7.12 3.76 5 3.11 9.57 6.92 11.87 9.77 9.16 11.35 14.91 30.81 20.36 52.27 5.44 21.46 4.48 47.73 4.48 49.33 0 .62-1.71.47-4.22.08-.12-.02-.25-.04-.38-.06-2.64-.41-6.07-1.06-9.35-1.41-.09-.01-.19-.02-.28-.02v-.01c-1.63-.16-3.23-.25-4.67-.18-.22-23.82-9.34-49.73-15.34-57.64-.24-.31-.47-.62-.7-.9-2.6-3.3-4.46-4.95-4.46-4.95m5.55 239.52l-.53-1.4m-50.05 7.66l-.65.19M120.67 122l.25 1.18 3.33 15.9 1.73 35.3 1.27 25.89v.04l.17 3.44-1.25 27-1.75 59.83-1.43 87.09 1.17.21 16.57 1.7.26.03.83.09 1.16.13 6.9-97.63 5.11-33.94M142.53 391s.36-10.02-.32-11a.78.78 0 00-.39-.3l-.83-.09c-.29.02-.61.08-.91.16-.87.22-1.64.59-1.64.59s-3.96 2.26-5.99 1.91c-1.59-.29-4.6-2.72-4.6-2.72s-.01 0-.02-.01l-2.17-.98c-.88.53-2.65 2.02-5.28 3.44-1.69.9-3.47 1.9-5.09 2.81-2.99 1.68-13.39 4.09-13.49 4.23-.27.34-2.86-.75-3.16 4.17-.02.21-.06.51-.02.66.63 2.11 2.86 1.65 6.27 1.77 1.79.06 26.29-.93 26.43-.93 2.1-.46.1.54 2.2.93.12 0 .25 0 .37-.01 4.7-.09 8.23-.26 8.45-.55.64-.83.24-3 .24-3l-.05-1.08zm56.74-1.7c-1.11-3.89-7.04-14.14-7.04-14.14-.17-.76-.51-1.36-.92-1.84-.75-.87-1.79-1.14-2.68-1.17-.69-.02-1.3.09-1.65.18l-.03.01-.94.1-1.88.2-.28.04-4.35.47.59 1.01c-.12.15-.19.3-.23.46-.43 1.88.63 6.38.63 6.38s-1.06 12.18-1.06 16.46c0 .09 0 .19.01.28.48 1.76 1.12 3.02 2.33 3.89 3.23 2.31 12.59 1.87 16.22-.53 1.89-1.26 1.81-1.73 2.07-3.4.46-2.96-.15-6.13-.79-8.4zm-56.69 2.78l-.05-1.08s.36-10.02-.32-11a.78.78 0 00-.39-.3l-.83-.09c-.29.02-.61.08-.91.16-.87.22-1.64.59-1.64.59s-3.96 2.26-5.99 1.91c-1.59-.29-4.6-2.72-4.6-2.72s-.01 0-.02-.01l-2.17-.98c-.88.53-2.65 2.02-5.28 3.44-1.69.9-3.47 1.9-5.09 2.81-2.99 1.68-13.39 4.09-13.49 4.23-.27.34-2.86-.75-3.16 4.17-.02.21-.06.51-.02.66.63 2.11 2.86 1.65 6.27 1.77 1.79.06 26.29-.93 26.43-.93 2.1-.46.1.54 2.2.93.12 0 .25 0 .37-.01 4.7-.09 8.23-.26 8.45-.55.64-.83.24-3 .24-3zm47.73-12.1l-6.18.8m7.03 2.1l-5.33.54m14.23 14.28c-1.84.91-5.51 2.4-10.82 2.97-5.71.62-8.71-1.77-9.8-2.93m-36.86-5.66l-.05-1.08s.36-10.02-.32-11a.78.78 0 00-.39-.3l-.83-.09c-.29.02-.61.08-.91.16-.87.22-1.64.59-1.64.59s-3.96 2.26-5.99 1.91c-1.59-.29-4.6-2.72-4.6-2.72s-.01 0-.02-.01l-2.17-.98c-.88.53-2.65 2.02-5.28 3.44-1.69.9-3.47 1.9-5.09 2.81-2.99 1.68-13.39 4.09-13.49 4.23-.27.34-2.86-.75-3.16 4.17-.02.21-.06.51-.02.66.63 2.11 2.86 1.65 6.27 1.77 1.79.06 26.29-.93 26.43-.93 2.1-.46.1.54 2.2.93.12 0 .25 0 .37-.01 4.7-.09 8.23-.26 8.45-.55.64-.83.24-3 .24-3zm-22.26-10.14l.06.06.85.74m-6.01 2l.07.07 2 1.93m62.8-12.58l-.59-1.01M142.53 391s-13.42 3.1-43.89 2.21m25.52-15.33l1.5.68 2.17.98c.01.01.02.01.02.01m82.27-165.37c.15 1.18.3 2.23.46 3.17 1.43 8.82 2.93 7.79 2.99 7.91 1.15 3.7 4.59 4.8 7.01 1.76.11-.08.21-.15.32-.22.16-.11.32-.23.5-.36 1.6-1.54 2.38-2.16 3.19-4.16.05-.2.1-.4.14-.62.57-2.38 1-5.57.93-8.8-.11-4.38-3.13-7.66-4.15-8.66-.23-.23-.41-.5-.53-.79l-.13-3.83M143.6 79.34h-.01l-.01.01c-.32.13-3.27 1.29-7 2.91-2.37 1.03-5.06 2.25-7.6 3.49v.01c-3.56 1.75-6.83 3.57-8.5 5.04l-26.29 4.46-78.43 13.31m194.81 108.78c-.78 1.41-1.69 2.89-2.21 3.24-1.07.75-2.1-1.5-1.11-4.11.56-1.41.68-2.84.7-3.63.01-.43.14-.85.39-1.2l2.25-4.89c.18-.24.31-.53.36-.85l-.02-8.43v-.01M150.37 70.32l-.36 5.04c-.27 4.42 3.25 8.95 9.15 10.02h.01c.44.08.87.14 1.33.18 6.72.67 11.7-2.81 12.18-7.65.03-.25.03-.5.03-.76l-.17-5.24m-.8-34.46c-1.38-1.28-6.64-.11-6.64-.11m4.22 3.99c-1.57-.87-3.15.04-3.15.04m9.36 7.95c-1.21.83-.97 9.61-8.8 7.11-1.45-.46-2.96-.72-4.48-.72-1.42 0-2.84.17-4.19.62-8.33 2.83-9.86-6.16-11.08-7.01m11.42-11.98s-5.25-1.17-6.63.11m23.25 11.24s.2.31.51.63c.44.48 1.11 1.01 1.74.72.09-.04.19-.11.29-.2.51-.38 1.09-1.24 1.49-2.67.64-2.34 1.05-2.89.58-5.29-.24-1.2-.63-2.28-1.25-2.66a.97.97 0 00-.62-.15c-1.41.11-2.59 3.17-2.59 3.17l.44-12.96s-9.54-2.04-11.82-2.06h-3.07c-2.29.02-12.83 2.06-12.83 2.06l-.55 12.96s-.65-1.68-1.56-2.59c-.49-.51-1.06-.78-1.65-.43-.63.38-1.01 1.46-1.25 2.66-.47 2.4-.06 2.95.58 5.29.47 1.72 1.23 2.61 1.78 2.87.27.13.56.1.83-.02.34-.15.66-.43.91-.7.31-.32.5-.63.5-.63m9.86-7.32s-1.96-.85-3.15-.04m-8.12 8.69c.03 2.07-.2 5-.23 7.71-.01 2.07.09 4.01.53 5.35.58 1.76 4 7.24 4 7.24s8.09 8.73 11.85 8.37c3.38-.32 10.32-6.78 10.32-6.78s4.38-7.52 4.63-8.41c1.09-3.86.55-6.87.4-10.84-.03-.88-.04-1.82-.01-2.82m.2-10.78c.02-.99.12-1.9.32-2.65 1.17-4.33 3.17-11.33-1-16.33-4.16-5-8.16-4-12.16-3.83-4 .16-13.84-4.5-19.5-1.67-5.67 2.83-8 8-7.67 11.33.33 3.34 5.33.17 5.33.17l2.34 1.33s.53 5.92.48 12.12m18.52 10.39s2.5 2.8-2.17 3.16c-2.16.17-3-1.16-3-1.16m7.67 11.02c-1.83 3.16-10.56.37-10.56.37M50.33 72.94c-.52-.87-1.68-1.67-2.79-1.67-2.32 0-4.05-4.8-12.48-2.76-5.34 1.29-7.65 5.38-8.63 8.2-.06.17-.11.33-.16.49-.42 1.39-.52 2.36-.52 2.36s3.49 4.65 5.24 9.01c1.74 4.37 11.63 6.11 13.66 4.95 2.04-1.17 1.46-1.75 2.33-4.07.65-1.75-2.13-9.57-3.56-13.35 1.47-.39 3.55-.85 5.49-1.01 1.83-.15 2-1.19 1.43-2.15h-.01m-6.91 3.16c-.48-1.26-.8-2.07-.8-2.07m18.54 29l8.5 7.06 26.17 5.82 12.8-.87 12.08 8.18M50.33 72.94h.01c30.73-4.86 67.83-10.78 95.5-15.21m29.83 21.89h.03c.17-.04.35-.07.51-.11 5.98-1.2 75.96-8.01 77.33-8.48 9.63-9.53-.58-27.9-4.05-27.49-1.25.15-68.84 8.62-71.92 9.12m-24.04 189.79l1.46 5.81 13.14 60.35 8.35 64.14 3.02.4 4.35-.47.28-.04 1.88-.2.94-.1.03-.01 1.65-.18 2.15-.23 1.23-.17-.53-88.61-1.49-59.13-.88-7.01s.18-17.79.46-38.5c.18-13.37.4-27.95.65-39.75m-.65 39.75c-3.09-6.54-6.39-14.21-7.15-18.5-1.36-7.72 4.56-60.57 6.03-72.48" stroke="#00441b" fill="none" stroke-width="1.5" stroke-linecap="round" stroke-linejoin="round"/></svg>