<svg xmlns="http://www.w3.org/2000/svg" width="212.86" height="418.71"><style>.st2{fill:#fff}.st1{fill:#577764}.st4{fill:#009640}.st3{fill:#5ea87c}.st0{fill:#4d5d77}</style><path class="st0" d="M149.59 399.81c-3.63 2.4-12.99 2.84-16.22.53-1.21-.87-2.35-2.38-2.33-3.89 1.09 1.16 4.09 3.55 9.8 2.93 5.31-.57 8.98-2.06 10.82-2.97-.52 1.55-.18 2.14-2.07 3.4"/><path class="st1" d="M151.66 396.41c-1.84.91-5.51 2.4-10.82 2.97-5.71.62-8.71-1.77-9.8-2.93-.01-.09-.01-.19-.01-.28 0-4.28 1.06-16.46 1.06-16.46s-1.06-4.5-.63-6.38c.04-.16.11-.31.23-.46 1.23-1.62 6.59-2.75 6.59-2.75s2.99 0 4.63 1.91c.41.48.75 1.08.92 1.84 0 0 5.93 10.25 7.04 14.14.64 2.27.64 5.41.79 8.4"/><path class="st2" d="M142.91 372.03c-1.64-1.91-4.63-.91-4.63-.91s-5.36.13-6.59 1.75l-.59-1.01 11.28-1.23z"/><path class="st3" d="M125.91 39.22c-.13.4-.27.71-.39.91-.71 1.14-3.51 6.57-3.92 7.88l-.16-18.63s-9.09-2.42-13.59-3.75c-4.5-1.34-9.66 1.66-9.66 1.66l-6 4.34v12.83l-1.75-4.04-.92-2.13-.17-10s-1.83 0-2 1.67c-.16 1.67-6-10.83 7-15.5 4.33-1.55 8.05-.58 11 1.51 1.17.82 18.84-3.68 21.34 11.49.71 4.37-.03 9.5-.78 11.76"/><path class="st2" d="M127.02 45.13c-.82 3.95-3.69 5.78-5.69 5.59-.14 1.32-.38 3.46-.57 5.37-.13-.98-.19-1.8-.07-2.3.5-2-4.67-.33-5.67-.33s-6.83-1.67-8.33-1.67-8.67 1.34-10.67 1.34-1.5-.84-2.67-.17c-.03.02-.06.06-.09.14l-1.57-2.47s-5 1.16-4.84-5.84c.17-7 3.5-4.33 3.5-4.33l.09-.04 1.75 4.04V31.63l6-4.34s5.16-3 9.66-1.66c4.5 1.33 13.59 3.75 13.59 3.75l.16 18.63c.41-1.31 3.21-6.74 3.92-7.88.12-.2.26-.51.39-.91 1.22.85 1.78 2.66 1.11 5.91"/><path class="st3" d="M120.76 56.09c-.13-.98-.19-1.8-.07-2.3.5-2-4.67-.33-5.67-.33s-6.83-1.67-8.33-1.67-8.67 1.34-10.67 1.34-1.5-.84-2.67-.17c-.03.02-.06.06-.09.14-.59 1.41-1.93 12.61.59 14.03.46.26.97.69 1.53 1.22 1.18 1.13 2.57 2.72 4.13 4.13.16.14.31.28.47.41a14.913 14.913 0 001.75 1.33c.43.28.86.53 1.3.73.17.08.34.15.52.22.09.04.18.07.27.1.16.06.32.11.48.15.23.06.46.11.69.14.16.03.31.05.47.06.18.01.37.02.56.01.09 0 .18-.01.27-.02.06 0 .13-.01.2-.02.35-.04.71-.11 1.09-.22.19-.05.38-.11.57-.18.21-.07.43-.15.65-.24.01 0 .02-.01.03-.01.18-.08.36-.15.55-.24.04-.02.08-.04.13-.06l.24-.12.24-.12c.14-.06.27-.13.41-.21l.27-.15c.39-.21.78-.44 1.17-.69.01 0 .01-.01.02-.01.59-.37 1.17-.76 1.75-1.18l.33-.24c1.52-1.11 2.96-2.33 4.13-3.41.88-.81 1.62-1.55 2.12-2.1.31-.34.54-.61.66-.78 1.38-2.01.32-6.55-.09-9.54"/><path class="st4" d="M72.28 246.12l33.9.59-4.7 31.2-8.79 99.05s-.72-1.04-2.15-1.89v-.01c-1.66-1-4.28-1.77-7.85-.43-1.91.72-3.4 1.17-4.54 1.44-2.83.69-3.56.31-3.56.31zm71.33 124.34l-1.23.17-1.22.13h-.01l-.92.1c-.13 0-.27 0-.4.01-.08 0-.15 0-.22.01a4.922 4.922 0 00-.75.1c-.11.02-.2.04-.28.06l-.03.01h-.02l-.92.1-1.88.2-.28.04-.64.07-1.23.13h-.01l-2.47.27-3.02-.4-8.35-67.14-12.54-57.59 35.7.71c.37 16.64.19 31.39.19 31.39v.02z"/><path class="st1" d="M91.07 398.08v.01c-1.15 1.18-4.14 3.43-9.71 2.83-5.31-.57-9.07-2.05-10.91-2.96-.63-2.97.4-6.76 1.2-9.23.82-2.49 1.96-4.86 3.2-7.17.86-1.61 2.62-3.71 3.3-5.49 1.14-.27 2.63-.72 4.54-1.44 3.57-1.34 6.19-.57 7.85.43v.01c1.21 2.25-.49 6.09-.27 8.5.3 3.34 1.9 9.95.8 14.51"/><path class="st0" d="M91.07 398.09c-.45 1.89-1.37 3.43-3.03 4.24-1.53.74-3.33.95-5.01 1.04-3.35.17-7.54-.12-10.42-2.02-1.21-.81-1.86-2.01-2.16-3.39 1.84.91 5.6 2.39 10.91 2.96 5.57.6 8.56-1.65 9.71-2.83"/><path class="st3" d="M205.88 135.18l-.3 14.03v.01l-.3 15.21v.01l-.11 5.29-.03 1.58c-3.73-.28-11.2-.69-12.56.32-1.82 1.36-2.48 1-2.98 3.1-.5 2.08 3.58 10.34 7.88 10.74 2.62.26 5.49 1.06 7.34 1.63l-1.23 61.53h-.01l-60.55-1.19-35.95-.71-.96-.02-33.65-.59-64.26-1.35v-.03l1.33-65.38c1.79-.58 4.97-1.51 7.83-1.78 4.29-.41 8.37-8.66 7.87-10.75-.5-2.09-1.16-1.73-2.98-3.1-1.34-1-8.62-.61-12.4-.33l.08-4.01v-.03c0-.01 0-.02.01-.03l.05-2.46v-.4l.23-11.15h-.01v-.02l-.02-.02.3-14.04h.01l29.36.59 24.38.49 1.49.03 7.08.14 14.67.29.74.02 3.29.07 9.35.18 9.23.18 12.98.26 2.64.06 15.81.31 19.9.4 17.9.37z"/><path class="st2" d="M209.09 186.43c-1.3.91-2.33 1.33-2.33 1.33s-.75-.28-1.93-.66c-1.85-.57-4.73-1.37-7.35-1.63-4.3-.4-8.38-8.66-7.88-10.74.5-2.1 1.16-1.74 2.98-3.1 1.36-1.01 8.84-.6 12.57-.32.03 0 .07.01.1.01-.01-.44-.03-.93-.07-1.45-.07-1.14-.21-2.44-.46-3.64-.22-1.07.07-1.62.57-1.8.27-.11.6-.1.95-.01v.01c.9.23 1.91 1.04 2.19 2.02.6 2.04 3.27 3.33 3.65 11.27.24 5.03-.76 7.12-2.99 8.71m-191.72-8.85c-2.86.27-6.04 1.2-7.83 1.78h-.01c-.89.29-1.44.5-1.44.5s-1.04-.41-2.33-1.33c-2.23-1.59-5.24-4.67-5-9.71.38-7.94 5.05-8.22 5.65-10.27.29-.97 1.29-1.79 2.19-2.02v-.01c.57-.14 1.1-.07 1.39.34.2.3.27.77.13 1.47-.07.34-.13.68-.18 1.03v.03c-.23 1.44-.32 2.92-.34 4.03.08-.01.16-.01.25-.02h.01c3.78-.28 11.06-.67 12.4.33 1.82 1.37 2.48 1.01 2.98 3.1s-3.58 10.34-7.87 10.75m100.7-109.07v10.83s-3.43 5.5-12.8 5.5c-9.37 0-9.95-6-9.95-6V68.41l.06-.06c2.66 2.54 6.36 7.41 10.64 7.28 3.58-.12 8.83-4.15 12.05-7.12"/><path class="st2" d="M124.36 83.15c-1.91 4.44-11.59 10.06-11.59 10.06l-7.25-7-6.38 6.25s-8.81-5.59-9.8-8.96c.01-.01.03-.02.04-.04 2.84-2.35 5.94-4.62 5.94-4.62s.58 6 9.95 6 12.8-5.5 12.8-5.5zm54.97 51.49l-37.79-.76-11.66-.23 8.14-42.68c6.66 3.98 13.72 8.48 16 10.99 8.65 9.48 25.31 32.68 25.31 32.68"/><path class="st4" d="M138.02 90.97l-8.14 42.68-9.92-.2c2.99-10.03 8.54-35.09 11.03-46.58 2.1 1.2 4.54 2.62 7.03 4.1"/><path class="st2" d="M130.99 86.87c-2.49 11.49-8.04 36.55-11.03 46.58l-27.11-.55-9.9-45.16c2.11-1.2 4.24-2.57 6.39-4.24.99 3.37 9.8 8.96 9.8 8.96l6.38-6.25 7.25 7s9.68-5.62 11.59-10.06c0 0 2.76 1.51 6.63 3.72"/><path class="st4" d="M81.12 132.66c.74-11.31-2.82-31.73-4.72-41.58 2.17-1.02 4.35-2.09 6.55-3.34l9.9 45.16z"/><path class="st2" d="M81.12 132.66l-8.3-.16-32.95-.67c6.91-13.68 16.63-22.48 25.15-34.87 3.78-2.36 7.56-4.06 11.38-5.88 1.9 9.85 5.46 30.27 4.72 41.58"/><path class="st4" d="M118.06 7.28c-3.83-.54-7.87-.82-12.04-.82-5.34 0-8.46.46-13.2 1.31.55-2.12 2.11-4.54 6.2-5.56 8-2 15.67-2 17.67.33.87 1.02 1.24 2.92 1.37 4.74"/><path class="st4" d="M150.52 27.21c0 8.79-8.43 14.38-23.5 17.9.67-3.24.11-5.04-1.11-5.89.75-2.26 1.49-7.39.78-11.76-2.5-15.17-20.17-10.67-21.34-11.49-2.95-2.09-6.67-3.06-11-1.51-13 4.67-7.16 17.17-7 15.5.17-1.67 2-1.67 2-1.67l.17 10 .92 2.13-.09.04s-3.26-2.61-3.49 4.11c-13.9-3.73-23.34-8.99-23.34-17.36 0-9.51 12.21-16.36 29.3-19.44 4.74-.85 7.86-1.31 13.2-1.31 4.17 0 8.21.28 12.04.82 18.73 2.59 32.46 9.84 32.46 19.93"/><path d="M127.02 45.11c15.07-3.52 23.5-9.11 23.5-17.9 0-10.09-13.73-17.34-32.46-19.93-3.83-.54-7.87-.82-12.04-.82-5.34 0-8.46.46-13.2 1.31-17.09 3.08-29.3 9.93-29.3 19.44 0 8.37 9.44 13.63 23.34 17.36m31.2-37.29c-.13-1.82-.5-3.72-1.37-4.74-2-2.33-9.67-2.33-17.67-.33-4.09 1.02-5.65 3.44-6.2 5.56m-11.7 124.89c.74-11.31-2.82-31.73-4.72-41.58m16.45 41.82l-9.9-45.16m48.04-.87c-2.49 11.49-8.04 36.55-11.03 46.58m18.06-42.48l-8.14 42.68M95.32 78.84s.57 5.99 9.95 5.99c9.37 0 12.8-5.49 12.8-5.49M9.85 163.4l.09-4.01v-.03m.28-14.05l-.23 11.55m-.46 22.5l-1.32 65.38v.03m2.3-113.53l-.29 14.07 75.29 45.78 21.27 12.93 21.77-12.08 77.04-42.73h.01l.28-14.03-195.37-3.94zm193.08 117.4L8.21 244.77v-.03l77.3-53.65 21.27 12.93 21.77-12.08.01.02 75.03 56.68zm-60.56-1.2c1.41 39.81-.8 82.27.99 122.52-.51.34-1.05.57-1.62.72-.5.13-1.03.2-1.57.24-.6.04-1.22.04-1.85.04-1.59 0-3.27-.01-4.97.59-.33.11-.66.24-.99.41-.55.27-1.09.4-1.62.41-1.4.04-2.65-.68-3.38-1.41-4.67-41.99-11.94-84.38-20.94-124.23m-.96-.02c-7.15 41.92-13.41 130.06-13.43 130.25-.67-.86-1.39-1.48-2.15-1.9-3.62-2.02-8.12.33-12.41.9-1.05.14-2.1.17-3.11 0 0-41.85-2.34-87.52-2.55-129.84m69.07-112.24a37.057 37.057 0 00-4.78-5.08m-16-72.71c-.13-.98-.19-1.8-.07-2.3.5-2-4.67-.33-5.67-.33s-6.83-1.67-8.33-1.67-8.67 1.34-10.67 1.34-1.5-.84-2.67-.17c-.03.02-.06.06-.09.14-.59 1.41-1.93 12.61.59 14.03.46.26.97.69 1.53 1.22 2.66 2.54 6.36 7.41 10.64 7.28 3.58-.12 8.83-4.15 12.05-7.12 1.43-1.31 2.46-2.42 2.78-2.88 1.38-2.01.32-6.55-.09-9.54zm5.93-28.63c-2.5-15.17-20.17-10.67-21.34-11.49-2.95-2.09-6.67-3.06-11-1.51-13 4.67-7.16 17.17-7 15.5.17-1.67 2-1.67 2-1.67l.17 10 .92 2.13 1.75 4.04V31.63l6-4.34s5.16-3 9.66-1.66c4.5 1.33 13.59 3.75 13.59 3.75L121.6 48c.42-1.32 3.21-6.73 3.92-7.87.12-.2.26-.51.39-.91.75-2.26 1.49-7.39.78-11.76zm24.18 360.55c-1.11-3.89-7.04-14.14-7.04-14.14-.17-.76-.51-1.36-.92-1.84-.59-.68-1.35-.99-2.08-1.11-.21-.04-.41-.05-.6-.06-.47-.01-.91.03-1.25.1-1.59 0-3.27-.01-4.97.59l-2.91.31.3.51.29.5c-.12.15-.19.3-.23.46-.43 1.88.63 6.38.63 6.38s-1.06 12.18-1.06 16.46c0 .09 0 .19.01.28.48 1.76 1.12 3.02 2.33 3.89 3.23 2.31 12.59 1.87 16.22-.53 1.89-1.26 1.81-1.73 2.07-3.4.46-2.96-.15-6.13-.79-8.4zM93.26 53.1l-1.57-2.47s-5 1.16-4.84-5.84c.17-7 3.5-4.33 3.5-4.33m30 10.08c.18.25.53.14.98.18 2 .19 4.87-1.64 5.69-5.59.67-3.25.11-5.06-1.11-5.91m-4.58 11.5c-.14 1.32-.38 3.46-.57 5.37m-17.57-22.8l-7.17 1.84m22.33.83l-6.83-2.67m-8 8.34c-2-3.67-7-.5-7-.5m21.33.66c-3.58-3.16-6.83-.5-6.83-.5m-.5 6.34l-1.33 1.16s-4 1.34-4.84 0c-.83-1.33 1.84-5.16 1.84-5.16m36.72 328.4l-.51-1.35-.02-.05m-.47 8.06l-6.18.8m7.03 2.1l-5.33.54m14.23 14.28c-1.84.91-5.51 2.4-10.82 2.97-5.71.62-8.71-1.77-9.8-2.93m.65-23.58l-.29-.5-.3-.51m-44.83 8.52l-5.98-.15m4.65 2.73l-5.5.17m11.72 14.86l-.09.09v.01c-1.15 1.18-4.14 3.43-9.71 2.83-5.31-.57-8.98-2.06-10.82-2.97m108.79-263.31s-16.67-23.2-25.31-32.68c-4.7-5.16-29.66-18.81-29.66-18.81-1.91 4.44-11.59 10.06-11.59 10.06l-7.25-7-6.38 6.25s-8.81-5.59-9.8-8.96c2.85-2.38 5.98-4.66 5.98-4.66V68.41m29.04 14.74l-6.29-3.81V68.32M90.54 375.06c1.21 2.25-.49 6.1-.27 8.51.3 3.34 1.9 9.95.8 14.51v.01c-.45 1.89-1.37 3.43-3.03 4.24-1.53.74-3.33.95-5.01 1.04-3.35.17-7.54-.12-10.42-2.02-1.21-.81-1.86-2.01-2.16-3.39-.63-2.97.4-6.76 1.2-9.23.82-2.49 1.96-4.86 3.2-7.17.86-1.61 2.62-3.71 3.3-5.49m34.99-315.61c-4 1.88-12.43.06-12.43.06M25.24 166.83c-.5-2.09-1.16-1.73-2.98-3.1-1.34-1-8.62-.61-12.4-.33-.09.01-.18.01-.26.02.02-1.12.11-2.61.34-4.06.05-.35.11-.69.18-1.03.14-.7.07-1.17-.13-1.47-.29-.41-.82-.48-1.39-.34v.01c-.9.23-1.9 1.05-2.19 2.02-.6 2.05-5.27 2.33-5.65 10.27-.24 5.04 2.77 8.12 5 9.71 1.29.92 2.33 1.33 2.33 1.33s.55-.21 1.45-.5c1.79-.58 4.97-1.51 7.83-1.78 4.29-.41 8.37-8.66 7.87-10.75zm-15.25-9.97c-.29-.41-.82-.48-1.39-.34v.01c-.9.23-1.9 1.05-2.19 2.02-.6 2.05-5.27 2.33-5.65 10.27-.24 5.04 2.77 8.12 5 9.71 1.29.92 2.33 1.33 2.33 1.33s.55-.21 1.45-.5c1.79-.58 4.97-1.51 7.83-1.78 4.29-.41 8.37-8.66 7.87-10.75-.5-2.09-1.16-1.73-2.98-3.1-1.34-1-8.62-.61-12.4-.33-.09.01-.18.01-.26.02.02-1.12.11-2.61.34-4.06.05-.35.11-.69.18-1.03.14-.7.07-1.17-.13-1.47m202.09 20.86c-.38-7.94-3.05-9.23-3.65-11.27-.28-.98-1.29-1.79-2.19-2.02v-.01c-.35-.09-.68-.1-.95.01-.5.18-.79.73-.57 1.8.25 1.2.39 2.5.46 3.64.04.52.06 1.01.07 1.45-.03 0-.07-.01-.1-.01-3.73-.28-11.21-.69-12.57.32-1.82 1.36-2.48 1-2.98 3.1-.5 2.08 3.58 10.34 7.88 10.74 2.62.26 5.5 1.06 7.35 1.63 1.18.38 1.93.66 1.93.66s1.03-.42 2.33-1.33c2.23-1.59 3.23-3.68 2.99-8.71zm-7.25 9.38c1.18.38 1.93.66 1.93.66s1.03-.42 2.33-1.33c2.23-1.59 3.23-3.68 2.99-8.71-.38-7.94-3.05-9.23-3.65-11.27-.28-.98-1.29-1.79-2.19-2.02v-.01c-.35-.09-.68-.1-.95.01-.5.18-.79.73-.57 1.8.25 1.2.39 2.5.46 3.64.04.52.06 1.01.07 1.45-.03 0-.07-.01-.1-.01-3.73-.28-11.21-.69-12.57.32-1.82 1.36-2.48 1-2.98 3.1-.5 2.08 3.58 10.34 7.88 10.74 2.62.26 5.5 1.06 7.35 1.63M89.38 83.46l-.01.01-.02.02-.01.01c-8.35 6.47-16.33 8.47-24.32 13.46-8.52 12.39-18.24 21.19-25.15 34.87m32.95.67l-.15-10.85m132.51 48.22l-.03 1.44m.14-6.88l.31-15.22h-.01m-2 99.43l1.24-61.54m-1.23 61.55l-.01-.01" stroke="#00441b" fill="none" stroke-width="1.5" stroke-linecap="round" stroke-linejoin="round"/></svg>