<svg xmlns="http://www.w3.org/2000/svg" width="217.12" height="416.11"><style>.st2{fill:#4d5d77}.st1{fill:#577764}.st5,.st6{stroke-linecap:round;stroke-linejoin:round}.st6{fill:#fff}.st5{stroke:#00441b;fill:none;stroke-width:1.5}.st0{fill:#fff}</style><path class="st0" d="M101.43 377.33l-.65.19c-.87.22-1.64.59-1.64.59s-3.96 2.26-5.99 1.91c-1.59-.29-4.6-2.72-4.6-2.72l-3.69-1.67z"/><path class="st1" d="M103.23 388.75s-13.42 3.1-43.89 2.21c.3-4.92 2.89-3.83 3.16-4.17.1-.14 10.5-2.55 13.49-4.23 1.62-.91 3.4-1.91 5.09-2.81 3.3-1.78 5.23-3.66 5.79-3.66.29 0 1.68 1.21 1.68 1.21s3.01 2.43 4.6 2.72c2.03.35 5.99-1.91 5.99-1.91s.77-.37 1.64-.59c.85-.22 1.77-.3 2.13.23.68.98.32 11 .32 11"/><path class="st2" d="M158.69 398.85c-3.63 2.4-12.99 2.84-16.22.53-1.21-.87-2.35-2.38-2.33-3.89 1.09 1.16 4.09 3.55 9.8 2.93 5.31-.57 8.98-2.06 10.82-2.97-.52 1.55-.18 2.14-2.07 3.4"/><path class="st1" d="M160.76 395.45c-1.84.91-5.51 2.4-10.82 2.97-5.71.62-8.71-1.77-9.8-2.93-.01-.09-.01-.19-.01-.28 0-4.28 1.06-16.46 1.06-16.46s-1.06-4.5-.63-6.38c.04-.16.11-.31.23-.46 1.23-1.62 6.59-2.75 6.59-2.75s2.99 0 4.63 1.91c.41.48.75 1.08.92 1.84 0 0 5.93 10.25 7.04 14.14.64 2.27.64 5.41.79 8.4"/><path class="st0" d="M152.01 371.07c-1.64-1.91-4.63-.91-4.63-.91s-5.36.13-6.59 1.75l-.59-1.01 11.28-1.23z"/><path class="st2" d="M103.03 392.83c-.21.29-3.74.46-8.44.55-.13 0-.25 0-.38.01-2.09-.39-.09-1.39-2.19-.93-.14 0-24.64.99-26.43.93-3.41-.12-5.64.34-6.27-1.77-.04-.15 0-.45.02-.66 30.47.89 43.89-2.21 43.89-2.21l.05 1.08s.39 2.17-.25 3"/><path class="st0" d="M107.74 56.67c4.79.8 9.18-.25 9.37-.33m24.64-6.01c-1.04 3.81-8.97 13.9-7.21 12.34L133.49 74l-.08.9c0 .26 0 .51-.03.76-.48 4.84-5.46 13.32-12.18 12.65-.46-.04-.89-.1-1.33-.18h-.01c-5.9-1.07-9.42-10.6-9.15-15.02 1.57.13 3.15.1 4.73.04 2.8-.12 5.59-.84 8.1-2.09 1.87-.93 4.56-2.31 5.2-4.44l.5-1.24s1.08-5.23 1.88-5.76c3.25-3.22 7.73-4.34 10.63-9.29"/><path d="M130.95 15.83c-3.77 0-13.21-5.95-20.54-2.4-2.7 1.31-5.35 6.04-5.59 9.58-.08 1.15 1.07 1.92 2.13 1.47 2.08-.88 3.86.11 4.6.65.28.2.61.29.95.28 1.87-.1 7.9-.37 10.65.04 2.12.32 7.87 2.42 10.29 3.33.64.24 1.04.88.98 1.56l-.78 8.36c-.12 1.22 1.18 2.07 2.25 1.48 1-.55 2.09-.87 2.87-.33.69.48.99 1.62 1.1 2.84.22 2.46-.35 2.93-1.45 5.14-.81 1.62-1.84 2.37-2.53 2.53-.35.08-.68 0-.99-.17-.72-.39-1.62-.19-2.02.54-1.46 2.72-3.88 7.99-12.5 3.1-5.22-2.96-11.04-2.59-13.14-2.23-.5.08-.78 1.15-.78 1.15L105.12 61c-.2 1.34-.41 2.69-.6 4.04-.43 2.93.23 5.74.97 6.52 1.03 1.08 2.49 1.32 3.91 1.44.11.02.22.03.32.03.29.03.57.05.84.07.05 0 .1.01.15.01 1.57.13 3.15.1 4.73.04 2.8-.12 5.59-.84 8.1-2.09 1.87-.93 4.56-2.31 5.2-4.44l.45-1.12c.03-.08.06-.16.07-.24.17-.8 1.13-5.16 1.86-5.64 3.25-3.22 7.73-4.34 10.63-9.29 0 0 .01 0 .01-.01 1.02-1.73 1.84-3.92 2.36-6.82.25-3.71 1.87-14.17.12-17.75-1.19-2.45-1.59-4.69-13.29-9.92" fill="#5ea87c"/><path class="st0" d="M138.41 47.83c-.81 1.62-1.84 2.37-2.53 2.53-.78.18-1.5-.46-1.96-1.01-1.67.66-2.68 10.65-13.55 4.48-5.22-2.96-11.04-2.59-13.14-2.23l.28-1.86a5.205 5.205 0 01-1.16-.43c-.84-.56-.92-1.85-.07-2.52l.27-.21.37-5.03 1.45-3.65.25-3.9.01-.01 3.3-8.55s7.94-.48 11.22.01c2.71.41 11.38 3.74 11.38 3.74l-1.21 12.92s3.61-3.54 5.44-2.26c.69.48.99 1.62 1.1 2.84.22 2.46-.35 2.93-1.45 5.14m3.89 37.53L131.16 142s-26.59 4.06-28.5 0c-7.15-15.22-5.85-46.08-5.22-55.91 3.68-2.22 6.53-3.87 6.84-3.99l.01-.01h.01l.01-.01.27-.19 6.61-4.79c1.13 4.61 4.22 10.22 8.67 11.03h.01c.44.08.87.14 1.33.18 6.72.67 11.7-7.81 12.18-12.65 2.96 2.91 3.95 7.67 3.95 7.67 1.54.47 3.22 1.17 4.97 2.03M95.16 169c0 6.39-4.8 12.79-7.74 19.36-.98-9.81-4.56-38.43-6.07-50.45l-14.16 25.58s-8.29 11.44-17.61 3.84c-4.64-3.77-4.9-36.55-1.06-33.03.58.54 1.14 1.15 1.65 1.79.73-1.92 19.37-29.16 30.01-38.54 1.82-1.6 5.68-4.21 9.8-6.84 1.16 15.72 5.18 70.59 5.18 78.29m60.17-27.55l-7.37 40.2c-1.92-2.33-5.57-7.46-6.3-13.65-.8-6.81 4.49-58.8 6.63-79.26 5.41 3.4 10.48 7.5 12.73 10.3 9.16 11.35 14.91 26.81 20.36 48.27 4.68 18.47-16.29 3.67-26.05-5.86m-53.9 235.88l-.65.19c-.87.22-1.64.59-1.64.59s-3.96 2.26-5.99 1.91c-1.59-.29-4.6-2.72-4.6-2.72s-.01 0-.02-.01l-2.17-.98-1.5-.68z"/><path d="M152.71 369.5l-1.23.17-2.15.23c-.69-.02-1.3.09-1.65.18l-.03.01-.94.1c-.47.03-1.15.09-1.88.2l-.28.04-4.35.47-3.02-.4-8.35-64.14-13.14-60.35-5.11 33.94-6.9 97.63-1.16-.13c-.23-.09-.52-.11-.83-.09l-.26-.03-16.57-1.7-1.17-.21 1.43-87.09.47-73.06s-.93-9.27-.43-18.77c.14-2.75 1.04-5.45 2.26-8.13v-.01c2.94-6.57 7.74-12.97 7.74-19.36 0-7.7-4.02-62.57-5.18-78.29 2.53-1.61 5.16-3.23 7.46-4.62-.63 9.83-1.93 40.69 5.22 55.91 1.91 4.06 28.5 0 28.5 0l11.14-56.64c1.96.96 4 2.12 5.99 3.38-2.14 20.46-7.43 72.45-6.63 79.26.73 6.19 4.38 11.32 6.3 13.65.72.87 1.2 1.35 1.2 1.35l.65 31.75.88 7.01 1.49 59.13zm13.62-330.67c-2.47 8.44-14.26 7.66-23.25 8.66.42-1.16.77-2.48 1.04-3.99.6-3.33 1.78-11.02.08-17.45-1.37-3.8-4.79-5.38-13.25-10.22-3.77 0-13.21-5.95-20.54-2.4-3.46 1.68-6.84 8.95-5.17 12.2 3.5-3.25 6.69-.19 6.69-.19l-3.3 8.55-.01.01-.25 3.9-1.45 3.65-.03.47-.23-.02c-11.82-5.8-20.35-21.28-17.99-29.34 2.67-9.15 14.91-8.13 31.59-7.38 1.22-1.88 2.54-4.45 6.62-4.53 8.01-.18 15.3 3.36 16.35 5.98.45 1.15.78 1.74.29 3.49 16.26 6.46 25.65 18.9 22.81 28.61" fill="#009640"/><path class="st5" d="M143 47.5c9-1 20.85-.2 23.33-8.67 2.84-9.71-6.55-22.15-22.81-28.61-3.32-1.33-6.92-2.46-10.74-3.35-4.89-1.14-7.9-1.38-12.52-1.59-16.68-.75-28.92-1.77-31.6 7.39-2.36 8.05 6.18 23.53 18 29.33m36.86-31.78c.5-1.75.16-2.33-.29-3.48-1.04-2.63-8.35-6.16-16.34-5.99-4.09.09-5.41 2.65-6.63 4.53M80.66 132.5s.26 2.06.69 5.41c1.51 12.02 5.09 40.64 6.07 50.45v.01m67.91-46.92l-7.37 40.2m-33.73 58.55l1.46 5.81 13.14 60.35 8.35 64.14 3.02.4 4.35-.47.28-.04 1.88-.2.94-.1.03-.01 1.65-.18 2.15-.23 1.23-.17-.53-88.61-1.49-59.13-.88-7.01-.65-31.75s-.48-.48-1.2-1.35c-1.92-2.33-5.57-7.46-6.3-13.65-.8-6.81 4.49-58.8 6.63-79.26m-5.99-3.38L131.16 142s-26.59 4.06-28.5 0c-7.15-15.22-5.85-46.08-5.22-55.91m18.25 159.92l-5.11 33.94-6.9 97.63-1.16-.13-.83-.09-.26-.03-16.57-1.7-1.17-.21 1.43-87.09.47-73.06s-.93-9.27-.43-18.77c.14-2.75 1.04-5.46 2.26-8.14 2.94-6.57 7.74-12.97 7.74-19.36 0-7.7-4.02-62.57-5.18-78.29m51.78-40.39c0 .01-.01.01-.01.01-1.04 3.81-8.97 13.9-7.21 12.34-.64.57-1.04.83-1.04.83m-14.79-23s1.33-.17 3.03 0m-12.2-1.5c1 .5 2.08.25 2.08.25M88.55 377.3s-.01 0-.02-.01l-2.17-.98-1.5-.68m18.37 13.12s-13.42 3.1-43.89 2.21m52.59-365.52s7.94-.48 11.22.01c2.71.41 11.38 3.74 11.38 3.74l-1.21 12.92s3.61-3.54 5.44-2.26c.69.48.99 1.62 1.1 2.84.22 2.46-.35 2.93-1.45 5.14-.81 1.62-1.84 2.37-2.53 2.53-.78.18-1.5-.46-1.96-1.01-.32-.37-.51-.71-.51-.71m-21.67.48l-.22.13c-1.24.66-2.68.84-4.01.49-.38-.09-.76-.23-1.12-.41l-.04-.02c-.84-.56-.92-1.85-.07-2.52l.27-.21 3.84-2.96m30.4 328.29l-.59-1.01m-62.21 13.59l-2-1.93-.07-.07m6.01-2l-.85-.74-.06-.06m22.26 10.14l-.05-1.08s.36-10.02-.32-11a.78.78 0 00-.39-.3c-.23-.09-.52-.11-.83-.09-.29.02-.61.08-.91.16-.87.22-1.64.59-1.64.59s-3.96 2.26-5.99 1.91c-1.59-.29-4.6-2.72-4.6-2.72s-.01 0-.02-.01c-.15-.14-1.39-1.2-1.66-1.2-.11 0-.28.08-.51.22-.88.53-2.65 2.02-5.28 3.44-1.69.9-3.47 1.9-5.09 2.81-2.99 1.68-13.39 4.09-13.49 4.23-.27.34-2.86-.75-3.16 4.17-.02.21-.06.51-.02.66.63 2.11 2.86 1.65 6.27 1.77 1.79.06 26.29-.93 26.43-.93 2.1-.46.1.54 2.2.93.12 0 .25 0 .37-.01 4.7-.09 8.23-.26 8.45-.55.64-.83.24-3 .24-3zm57.48 5.62c-1.84.91-5.51 2.4-10.82 2.97-5.71.62-8.71-1.77-9.8-2.93m6.39-14.32l5.33-.54m-.85-2.9l-6.18.8m-41.6 10.22s.36-10.02-.32-11a.78.78 0 00-.39-.3c-.23-.09-.52-.11-.83-.09-.29.02-.61.08-.91.16-.87.22-1.64.59-1.64.59s-3.96 2.26-5.99 1.91c-1.59-.29-4.6-2.72-4.6-2.72s-.01 0-.02-.01l-2.17-.98c-.88.53-2.65 2.02-5.28 3.44-1.69.9-3.47 1.9-5.09 2.81-2.99 1.68-13.39 4.09-13.49 4.23-.27.34-2.86-.75-3.16 4.17-.02.21-.06.51-.02.66.63 2.11 2.86 1.65 6.27 1.77 1.79.06 26.29-.93 26.43-.93 2.1-.46.1.54 2.2.93.12 0 .25 0 .37-.01 4.7-.09 8.23-.26 8.45-.55.64-.83.24-3 .24-3l-.05-1.08zm56.74-1.7c-1.11-3.89-7.04-14.14-7.04-14.14-.17-.76-.51-1.36-.92-1.84-.75-.87-1.79-1.14-2.68-1.17-.69-.02-1.3.09-1.65.18l-.03.01-.94.1c-.47.03-1.15.09-1.88.2l-.28.04-4.35.47.59 1.01c-.12.15-.19.3-.23.46-.43 1.88.63 6.38.63 6.38s-1.06 12.18-1.06 16.46c0 .09 0 .19.01.28.48 1.76 1.12 3.02 2.33 3.89 3.23 2.31 12.59 1.87 16.22-.53 1.89-1.26 1.81-1.73 2.07-3.4.46-2.96-.15-6.13-.79-8.4zM55.57 143.09s-.44-.6-1.33-1.77c-.9-1.18-2.24-2.93-4.07-5.23-.51-.64-1.07-1.25-1.65-1.79-3.84-3.52-3.58 29.26 1.06 33.03 9.32 7.6 17.61-3.84 17.61-3.84l14.76-26.66m19.48 240.5l-.65.19m51.23-6.45l-.53-1.4M117.11 56.34c-4.28 2.66-8.45-1.67-9.37.33m-57.57 79.42c.73-1.92 19.37-29.16 30.01-38.54 4.73-4.17 23.28-15.13 24.1-15.45l.01-.01h.01l.01-.01 7.02-5.08m22.05-1.34c2.97 2.91 3.95 7.67 3.95 7.67-1.33 7-8.29 14.52-8.29 14.52l-9.2-9.59-4.66 3.24-3.89 4s-3.88-4.14-4.63-7.17l-2-6.33m41.8 49.55s2.2 1.95 5.16 5.85c6 7.91 35.2 31.37 29.76 9.91-5.45-21.46-11.2-36.92-20.36-48.27-3.83-4.75-15.78-13.28-23.69-15.71M114.37 34c-2-2.5-5.63-.09-5.74-.01l-.01.01m17.75 2.25c-5-3.08-7.87-1.25-7.87-1.25m-11.27 16.6l.28-1.86m-.96-3.16l.37-5.03 1.45-3.65.25-3.9.01-.01 3.3-8.55s-3.19-3.07-6.69.18c-1.67-3.25 1.71-10.51 5.17-12.19 7.33-3.56 16.82 1.77 20.54 2.4 10.63 4.59 13.38 9.09 13.76 11.34 1.06 6.23.01 12.97-.59 16.33-.52 2.91-1.34 5.1-2.37 6.83-2.9 4.95-7.38 6.07-10.63 9.29-.8.53-1.88 5.76-1.88 5.76l-.5 1.24c-.64 2.13-3.33 3.51-5.2 4.44-2.51 1.25-5.3 1.97-8.1 2.09-1.58.06-3.16.09-4.73-.04-.05 0-.1-.01-.15-.01-.27-.02-.55-.04-.84-.07-.1 0-.21-.01-.32-.03-1.42-.12-2.88-.36-3.91-1.44-.74-.78-1.4-3.59-.97-6.52.19-1.35.4-2.7.6-4.04l1.33-8.25s.28-1.07.78-1.15c2.1-.36 7.92-.73 13.14 2.23 10.87 6.17 11.88-3.82 13.55-4.48m-23.21 23.76c-.27 4.42 3.25 13.95 9.15 15.02h.01c.44.08.87.14 1.33.18 6.72.67 11.7-7.81 12.18-12.65.03-.25.03-.5.03-.76m0 0l.08-.9 1.05-11.33"/><path class="st6" d="M216.37 77.53s-33.11-1.06-41.66 1.8c-8.56 2.87-70 29-70 29S58.58 82.9 54.46 81.47c-4.12-1.43-35.93-11.25-45.75-4.8C23.04 100.33 23.37 128 23.37 128s1.99 22.57 1.67 24c-.32 1.43-4 28-4 28s16.94 3.16 41.97 12.82c25.04 9.67 39.03 18.84 39.03 18.84s20.86 2.65 39.55-10.96c18.7-13.6 56.31-3.6 56.31-3.6s-11.76-47.27-3.53-64.1c8.24-16.83 12.81-42.22 22-55.47"/><path class="st5" d="M216.37 77.53s-33.11-1.06-41.66 1.8c-8.56 2.87-70 29-70 29S58.58 82.9 54.46 81.47c-4.12-1.43-35.93-11.25-45.75-4.8C23.04 100.33 23.37 128 23.37 128s1.99 22.57 1.67 24c-.32 1.43-4 28-4 28s16.94 3.16 41.97 12.82c25.04 9.67 39.03 18.84 39.03 18.84s20.86 2.65 39.55-10.96c18.7-13.6 56.31-3.6 56.31-3.6s-11.76-47.27-3.53-64.1c8.24-16.83 12.81-42.22 22-55.47z"/><path d="M171.06 131.13c-.57-.01-1.79-37.73-1.79-37.73l-14.7 7.73 1.01 35.97zm19.73-5.71s6.23-31.56 10.81-36.83c-9.67-2.84-25.8 3.75-25.8 3.75l1.28 37.55zm-35.31 44.69c-1.33 2.48.68 16.1.68 16.1s27.17-1.33 33.63-1.66c-1.24-1.74-3.17-21.24-3.17-21.24s-20.43 5.53-31.14 6.8m.44-24.27c-.79 1.67-.43 16.76-.43 16.76s15.46-1.89 30.49-6.15c-1.91-4.65 2.26-23.16 2.26-23.16s-27.8 10.62-32.32 12.55m-21.96 9.92l-20.59 6.1s1.44 19.23.12 25.01c-1.31 5.72-2.25 16.27-2.25 16.27s14.25-3.26 14.93-5.08c.7-1.83 16.61-12.37 24.42-11.68-1.52-21.52-.61-39.06-.61-39.06zM112.37 117l1.94 37.38 33.79-13.51-.42-36.36c-.01.99-35.31 12.49-35.31 12.49M23.04 83.67c3.04 8.41 6.79 46 6.79 46l20.44 9.6-2.35-44.95s-17.33-10.4-24.88-10.65m30.15 12.48l2.62 47.48s4.22 2.76 12.68 7.44c3.17-5.65-1.27-48.62-1.27-48.62zm-20.7 42.05c.7 4.13-3.13 33.43-3.13 33.43l34.71 12.05 3.62-28.14s-24.73-13.39-35.2-17.34m64.95 9.59l-21.41-7.88s-2.71 45.23-4.99 47.05c13.3 7.42 22.37 12.09 22.37 12.09s3.86-20.61 4.43-26.08c.58-5.52-.4-25.18-.4-25.18m.6-5.01l-23.43-11.67-1.48-26.04 23.96 9.71z" fill="#5ea87c" stroke-linecap="round" stroke-linejoin="round"/><path class="st5" d="M102.04 211.66s4.67-26.66 4-43m-1.33-60.33l.66 47.67"/><path class="st6" d="M197.87 131s-2 11.5-2.83 12.67c-.83 1.16-11-1-11-1s-2.67-6.67-1.83-9.5c.83-2.84-.5-6 7.66-4.67 8.17 1.33 8 2.5 8 2.5"/><path class="st5" d="M197.87 131s-2 11.5-2.83 12.67c-.83 1.16-11-1-11-1s-2.67-6.67-1.83-9.5c.83-2.84-.5-6 7.66-4.67 8.17 1.33 8 2.5 8 2.5z"/><path class="st6" d="M20.54 108.66s9.33 1.84 9.5 3c4.17 2.17 5.33 8.67 3.17 10.34-2.17 1.66-11.84-1.67-11.84-1.67s-8.66-13-1.16-14.33z"/><path class="st5" d="M20.54 108.66s9.33 1.84 9.5 3c4.17 2.17 5.33 8.67 3.17 10.34-2.17 1.66-11.84-1.67-11.84-1.67s-8.66-13-1.16-14.33l.33 2.66zm75.65-42.17l-.78-1.59-2.02.16m1.85 2.79l-.47-2.06-2.47.36m1.98 2.77l-.48-1.98-2.06.45m1.44 2.66l.02-1.96-2.46.69m1.5 2.51l.31-2.27-2.52.9m17.72-13.29s-10.22 2.05-10 2.91c.23.87-7.32 12.27-7.32 12.27"/></svg>