<svg xmlns="http://www.w3.org/2000/svg" width="225.5" height="405.76"><style>.st2{fill:#fff}.st1{fill:#009640}.st4{fill:#5ea87c}.st3{fill:#4d5d77}.st0{fill:#577764}</style><path class="st0" d="M200.09 210.11c-1.35-.01-2.74-.03-4.17-.05-.25-1.35-.56-2.87-.8-4.08a3.195 3.195 0 00-2.81-2.58c-1.1-.11-.89-.22-2.36-.24.37-.55.64-1.17.8-1.86.16-.68.26-1.36.33-2.04 1.59-.04 5.14-.36 6.64 1.84.79 1.16 1.8 5.81 2.37 9.01m-26.14-6.83c-2.09.05-2.4.14-2.62.3-.48.36-1.32.96-.96 3.12.14.81.35 1.97.58 3.12-1.56 0-3.04-.02-4.45-.03-.5-2.35-.95-5.24-.82-7.02.24-3.36 4.45-3.63 4.45-3.63l6.76.05h.02c.28 3.89-2.96 4.09-2.96 4.09"/><path class="st1" d="M180.64 241.01l-.23-5.75c5.31.04 11.06.08 16.5.12l.73 5.3zm41.64-6.57c.78-1.98.96-7.38-1.43-21.9a2.652 2.652 0 00-2.56-2.21s-7.9-.11-18.2-.22c-1.35-.01-2.74-.03-4.17-.05-8.16-.08-17.26-.18-24.97-.24-1.56 0-3.04-.02-4.45-.03-3.07-.01-5.79-.02-7.96-.02-3.26.01-5.31.03-5.51.09l-1.83.69a2.498 2.498 0 00-1.61 2.44l2.16 55.86 8.28.03 4 .02 53.26.19 7.42-1.51.04-.01z"/><path class="st2" d="M197.64 240.68l-17 .33-.23-5.75c5.31.04 11.06.08 16.5.12z"/><path class="st3" d="M166.54 386.86c-3.63 2.4-12.99 2.84-16.22.53-1.21-.87-2.35-2.38-2.33-3.89 1.09 1.16 4.09 3.55 9.8 2.93 5.31-.57 8.98-2.06 10.82-2.97-.52 1.55-.18 2.14-2.07 3.4"/><path class="st0" d="M116.97 183.24v5.51c-2.8.03-5.55.03-8.14 0-.01-1.7-.03-3.55-.05-5.51 2.31.01 5.09.01 8.19 0"/><path class="st2" d="M138.66 76.92c-1.11 3.9-2.59 7.34-2.59 7.34l-1.79-1.73v-.01l-7.43-7.19-4.44-4.3.01-.13h.01c.45.03.88.04 1.34.04 6.75-.04 11.34-4.02 11.31-8.89.01-.25-.02-.5-.05-.76l-.01-.9c.16.08.34.2.54.32 1.58 2.09 2.5 8.39 3.1 16.21"/><path class="st1" d="M126.85 75.33l-2.25 4.68 3.86 71.89-6.41 10.49-5.56-9.2L119.85 80l-1.73-5.26 4.29-3.71z"/><path class="st2" d="M138.66 76.92c1.01 13.17 1.63 32.1 1.68 41.03-.1 11.44-.14 24.34-.15 36.6.01 10.56-.68 20.02-.85 28.29-5.18.18-10.4.29-15.24.35-2.5.03-4.9.04-7.13.05-3.1.01-5.88.01-8.19 0-.13-12.71-.06-28.24-.27-34.57-.24-7.22-.41-12.56-.45-13.79-.62-23.59-1.52-42.4-.43-56.08 1.06 2.94 2.48 4.83 2.48 4.83l8.01-8.89 1.73 5.26-3.36 73.18 5.56 9.21 6.41-10.49-3.86-71.89 2.25-4.68 7.43 7.19v.01l1.79 1.73s1.48-3.44 2.59-7.34"/><path class="st4" d="M143.77 86.11l4.32 5.33s-5.39 26.89-7.9 63.11c.01-12.26.05-25.16.15-36.6-.05-8.93-.67-27.86-1.68-41.03-.6-7.82-1.52-14.12-3.1-16.21 1.32.82 3.5 2.48 5.74 5.49 2.39 3.19 4.86 7.9 6.45 14.72-3.36 4-3.98 5.19-3.98 5.19"/><path class="st2" d="M124.36 188.63c-2.47.06-4.95.1-7.39.12v-5.51c2.23-.01 4.63-.02 7.13-.05z"/><path class="st0" d="M139.34 182.84c-.03 1.86-.07 3.62-.1 5.28-4.52.19-9.67.38-14.88.51l-.26-5.44c4.84-.06 10.06-.17 15.24-.35"/><path class="st4" d="M193.71 184.65c0 .65-1.88.45-4.6.02-2.64-.41-6.07-1.06-9.35-1.41-1.73-.18-3.43-.28-4.95-.21-.22-23.82-9.62-50.7-15.81-58.47l-.2 77.76-1.14.42-13.85 1.17c-2.59.22-4.8-1.84-4.76-4.44.05-2.6.11-7.14.19-11.37.03-1.66.07-3.42.1-5.28.17-8.27.86-17.73.85-28.29 2.51-36.22 7.9-63.11 7.9-63.11l-4.32-5.33s.62-1.19 3.98-5.19c-1.59-6.82-4.06-11.53-6.45-14.72 8.12 1.59 19 10.91 23.3 15.23 10.29 10.33 18.43 31.03 24.39 52.36 5.94 21.33 4.72 49.26 4.72 50.86"/><path class="st2" d="M191.08 199.26c-.07.68-.17 1.36-.33 2.04a5.55 5.55 0 01-.8 1.86c-3.2 4.98-13.56 4.9-14.1 4.15-.37-.51-1.26-2.53-1.9-4.03 0 0 3.24-.2 2.96-4.09h-.02c-1.49-.89-3.37-.4-5.62-.06 0 0 5.31-10.56 7.47-11.76.65-.36.93-2 1.02-4.11 3.28.35 6.71 1 9.35 1.41l-.04 3.18s2.62 5.35 2.01 11.41"/><path class="st0" d="M168.61 383.46c-1.84.91-5.51 2.4-10.82 2.97-5.71.62-8.71-1.77-9.8-2.93-.01-.09-.01-.19-.01-.28 0-4.28 1.06-16.46 1.06-16.46s-1.06-4.5-.63-6.38c.04-.16.11-.31.23-.46 1.23-1.62 6.59-2.75 6.59-2.75s2.99 0 4.63 1.91c.41.48.75 1.08.92 1.84 0 0 5.93 10.25 7.04 14.14.64 2.27.64 5.41.79 8.4"/><path class="st2" d="M159.86 359.08c-1.64-1.91-4.63-.91-4.63-.91s-5.36.13-6.59 1.75l-.59-1.01 11.28-1.23z"/><path class="st4" d="M111.28 61.92c-.02.02-.04.05-.05.07-1.77 3.11-2.98 8.9-3.61 16.8l.01.01c-1.09 13.68-.19 32.49.43 56.08.04 1.23.21 6.57.45 13.79l-8.35-52.93 2.93-5.59s-2.17-3.12-2.65-5.33c1.98-9.99 5.69-17.93 5.85-18.29l.01-.01h.01l.01-.01 4.64-4.59c.11.01.22.01.32 0"/><path class="st2" d="M138.66 76.92c-1.11 3.9-2.59 7.34-2.59 7.34l-1.79-1.73v-.01l-7.43-7.19-4.44-4.3-4.29 3.71-8.01 8.89s-1.42-1.89-2.48-4.83l-.01-.01c.63-7.9 1.84-13.69 3.6-16.8.02-.02.04-.05.06-.07.29-.01.57-.01.84-.02.05-.01.1 0 .15-.01.19 4.42 4.17 8.56 10.15 9.01h.01c.45.03.88.04 1.34.04 6.75-.04 11.34-4.02 11.31-8.89.01-.25-.02-.5-.05-.76l-.01-.9c.16.08.34.2.54.32 1.58 2.09 2.5 8.39 3.1 16.21"/><path class="st4" d="M142.86 26.27c-.13.4-.27.71-.39.91-.71 1.14-3.51 6.57-3.92 7.88l-.16-18.63s-9.09-2.42-13.59-3.75c-4.5-1.34-9.66 1.66-9.66 1.66l-6 4.34v12.83l-1.75-4.04-.92-2.13-.17-10s-1.83 0-2 1.67c-.16 1.67-6-10.83 7-15.5 4.33-1.54 8.05-.58 11 1.51 1.17.82 18.84-3.67 21.34 11.49.71 4.37-.03 9.5-.78 11.76"/><path class="st2" d="M143.97 32.18c-.82 3.95-3.69 5.78-5.69 5.59-.14 1.32-.38 3.46-.57 5.37-.13-.98-.19-1.8-.07-2.3.5-2-4.67-.33-5.67-.33s-6.83-1.67-8.33-1.67-8.67 1.34-10.67 1.34-1.5-.84-2.67-.17c-.03.02-.06.06-.09.14l-1.57-2.47s-5 1.16-4.84-5.84c.17-7 3.5-4.33 3.5-4.33l.09-.04 1.75 4.04V18.68l6-4.34s5.16-3 9.66-1.66c4.5 1.33 13.59 3.75 13.59 3.75l.16 18.63c.41-1.31 3.21-6.74 3.92-7.88.12-.2.26-.51.39-.91 1.22.85 1.78 2.66 1.11 5.91"/><path class="st4" d="M124.3 49.01c-3.16.83-9.33-5.83-9.33-5.83s15.17 1.5 17 .33c-1.33 2.67-4.5 4.67-7.67 5.5m13.41-5.87c-.13-.98-.19-1.8-.07-2.3.5-2-4.67-.33-5.67-.33s-6.83-1.67-8.33-1.67-8.67 1.34-10.67 1.34-1.5-.84-2.67-.17c-.03.02-.06.06-.09.14-.59 1.41-1.93 12.61.59 14.03.64.36 1.38 1.05 2.2 1.88 2.6 2.64 6.04 6.74 9.97 6.62 4.57-.15 11.83-6.66 14.17-9.22.31-.34.54-.61.66-.78 1.38-2.01.32-6.55-.09-9.54"/><path class="st2" d="M131.97 43.51c-1.33 2.67-4.5 4.67-7.67 5.5-3.16.83-9.33-5.83-9.33-5.83s15.17 1.5 17 .33"/><path class="st4" d="M160.56 357.51l-1.23.17-2.15.23c-.69-.02-1.3.09-1.65.18l-.03.01-.94.1-1.88.2-.28.04-4.35.47-3.02-.4-8.35-64.14-13.14-60.35-5.11 33.94-8.79 96.05s-.72-1.04-2.15-1.89v-.01c-1.66-1-4.28-1.77-7.85-.43-1.91.72-3.4 1.17-4.54 1.44-2.83.69-3.56.31-3.56.31l1.43-87.09.47-73.06 11.62.18c2.14.03 3.89-1.71 3.87-3.85-.01-1.03-.05-5.23-.11-10.86h.01c2.59.03 5.34.03 8.14 0 2.44-.02 4.92-.06 7.39-.12 5.21-.13 10.36-.32 14.88-.51h.03c-.1 4.58-.17 8.47-.22 11.37a4.386 4.386 0 004.76 4.44l13.85-1.17.88 7.01c-3.26.01-5.31.03-5.51.09l-1.83.69a2.498 2.498 0 00-1.61 2.44l2.16 55.86 8.28.03v.02z"/><path class="st2" d="M135.09 62.05c.03 4.87-4.56 8.85-11.31 8.89-.47 0-.9-.01-1.35-.04h-.01c-5.98-.45-9.95-4.58-10.15-9.01v-6.43l.06-.06c2.66 2.54 6.36 7.41 10.64 7.28 3.58-.12 8.83-4.15 12.05-7.12v4.83l.02.9c.02.26.05.51.05.76"/><path class="st0" d="M108.02 385.13v.01c-1.15 1.18-4.14 3.43-9.71 2.83-5.31-.57-9.07-2.05-10.91-2.96-.63-2.97.4-6.76 1.2-9.23.82-2.49 1.96-4.86 3.2-7.17.86-1.61 2.62-3.71 3.3-5.49 1.14-.27 2.63-.72 4.54-1.44 3.57-1.34 6.19-.57 7.85.43v.01c1.21 2.25-.49 6.09-.27 8.5.3 3.34 1.9 9.95.8 14.51"/><path class="st3" d="M108.02 385.14c-.45 1.89-1.37 3.43-3.03 4.24-1.53.74-3.33.95-5.01 1.04-3.35.17-7.54-.12-10.42-2.02-1.21-.81-1.86-2.01-2.16-3.39 1.84.91 5.6 2.39 10.91 2.96 5.57.6 8.56-1.65 9.71-2.83"/><path class="st2" d="M26.49 110.97v.01c-1.44 2.22-3.34 5.75-4.34 7.65l-3.07-2.29c-.31-.09-.63-.12-.95-.08-1.42.17-5.87.48-9.36-2.17-2.56-1.95-4.79-4.28-6.29-6.21-.14-.18-.27-.35-.39-.51-1.06-1.88-1.06-2.88-1.25-5.09 0-.22.01-.42.03-.61l.03-.38c-.87-3.8 2.13-5.8 5.74-4.39.14.04.27.07.41.11 2.06.61 5.19 2.07 9.63 5.37.03-.39-.03-.78-.19-1.13-.68-1.48-2.29-5.14-2.21-6.17.09-1.3 2.49-.7 3.9 1.7.76 1.32 1.81 2.31 2.41 2.82.33.28.57.64.69 1.06l1.66 5.47c.09.29.24.57.45.81z"/><path class="st4" d="M108.93 199.61a3.818 3.818 0 01-3.87 3.85l-11.62-.18-2.3.06-1.34-78.5-.07-5.08-18.59 27.25s-10.67 14-21.17 5.17c-4.57-3.85-23.99-24.21-28.26-29.9-.51-.67-.59-1.57-.23-2.33 0 0 .26-.51.68-1.32 1-1.9 2.9-5.43 4.34-7.65v-.01c.82-1.24 1.49-2.07 1.79-1.99 4.6 1.37 20.31 12.29 24.15 15.81.58.54 1.14 1.15 1.65 1.79.73-1.92 20.37-38.16 31.01-47.54 3.64-3.21 14.89-8.08 20.24-10.29-1.27 3.08-3.51 9.07-4.9 16.07.48 2.21 2.65 5.33 2.65 5.33l-2.93 5.59 8.36 52.93c.18 5.67.12 21.76.25 34.57.02 1.93.04 3.79.05 5.51.06 5.63.1 9.83.11 10.86"/><path d="M105.34 68.75c-5.35 2.21-16.6 7.08-20.24 10.29-10.64 9.38-30.28 45.62-31.01 47.54m35.64-6.82l-18.59 27.25s-10.67 14-21.17 5.17c-4.57-3.85-23.99-24.21-28.26-29.9-.51-.67-.59-1.57-.23-2.33 0 0 .26-.51.68-1.32 1-1.9 2.9-5.43 4.34-7.65v-.01c.82-1.24 1.49-2.07 1.79-1.99 4.6 1.37 20.31 12.29 24.15 15.81.58.54 1.14 1.15 1.65 1.79 1.83 2.3 3.81 3.92 4.71 5.1m-36.65-13.05l-3.07-2.29c-.31-.09-.63-.12-.95-.08-1.42.17-5.87.48-9.36-2.17-2.56-1.96-4.79-4.29-6.29-6.22-.14-.17-.27-.34-.39-.5-1.06-1.88-1.06-2.88-1.26-5.09l.03-.61.03-.39c-.86-3.79 2.14-5.79 5.75-4.38.14.03.27.07.41.11 2.06.61 5.18 2.06 9.63 5.37m.2 5.5c-.85-.92-.45-3.97-.23-5.33.01-.05.02-.12.03-.17.03-.39-.03-.78-.19-1.13-.68-1.48-2.29-5.14-2.21-6.17.09-1.3 2.49-.7 3.9 1.7.76 1.32 1.81 2.31 2.41 2.82.33.28.57.64.69 1.06l1.66 5.47c.09.29.24.57.45.81l3.1 4.03v.01m81 251.13c1.21 2.25-.49 6.1-.27 8.51.3 3.34 1.9 9.95.8 14.51v.01c-.45 1.89-1.37 3.43-3.03 4.24-1.53.74-3.33.95-5.01 1.04-3.35.17-7.54-.12-10.42-2.02-1.21-.81-1.86-2.01-2.16-3.39-.63-2.97.4-6.76 1.2-9.23.82-2.49 1.96-4.86 3.2-7.17.86-1.61 2.62-3.71 3.3-5.49m39.92-307.75v5.02m-22.75 1.5v-6.43m-4.17 329.57c-1.09 1.16-4.09 3.55-9.8 2.93-5.31-.57-8.98-2.06-10.82-2.97m14.4-14.98l-5.5.16m.85-2.9l5.99.16m45.42-7.51l-.59-1.01m20.56 24.55c-1.84.91-5.51 2.4-10.82 2.97-5.71.62-8.71-1.77-9.8-2.93m11.72-14.86l-5.33.54m4.48-3.44l-6.18.8m15.14 8.52c-1.11-3.89-7.04-14.14-7.04-14.14-.17-.76-.51-1.36-.92-1.84-.75-.87-1.79-1.14-2.68-1.17-.69-.02-1.3.09-1.65.18l-.03.01-.94.1c-.47.03-1.15.09-1.88.2l-.28.04-4.35.47.59 1.01c-.12.15-.19.3-.23.46-.43 1.88.63 6.38.63 6.38s-1.06 12.18-1.06 16.46c0 .09 0 .19.01.28.48 1.76 1.12 3.02 2.33 3.89 3.23 2.31 12.59 1.87 16.22-.53 1.89-1.26 1.81-1.73 2.07-3.4.46-2.96-.15-6.13-.79-8.4zm-13.23-163.64c-.29-.78-.72-1.4-1.56-1.56.2-.06 2.25-.08 5.51-.09 2.17 0 4.89.01 7.96.02 1.41.01 2.89.03 4.45.03 7.71.06 16.81.16 24.97.24 1.43.02 2.82.04 4.17.05 10.3.11 18.2.22 18.2.22 1.27.02 2.35.96 2.56 2.21 2.39 14.52 2.21 19.92 1.43 21.9-.57 1.45-1.47 1.06-1.91 1.08-.44.02-11.15-.05-23.46-.14-5.44-.04-11.19-.08-16.5-.12-11.4-.09-20.79-.16-20.79-.16-2.87-.13-2.27-1.8-2.87-4.33 0 0-1.33-16.02-1.73-17.77-.12-.54-.25-1.09-.43-1.58m0 0l2.77 56.51-5.61.92-2.16-55.86c-.05-1.07.6-2.05 1.61-2.44l1.83-.69m69.25 24.58l2.47 33.13v.01h-.04l-67.35.35m42.73-57.82c-.57-3.2-1.58-7.85-2.37-9.01-1.5-2.2-5.05-1.88-6.64-1.84m4.84 10.8c-.25-1.35-.56-2.87-.8-4.08a3.195 3.195 0 00-2.81-2.58c-1.1-.11-.89-.22-2.36-.24m-19 6.66c-.23-1.15-.44-2.31-.58-3.12-.36-2.16.48-2.76.96-3.12.22-.16.53-.25 2.62-.3 0 0 3.24-.2 2.96-4.09h-.02l-6.76-.05s-4.21.27-4.45 3.63c-.13 1.78.32 4.67.82 7.02m7.45-6.51c.64 1.5 1.53 3.52 1.9 4.03.54.75 10.9.83 14.1-4.15.37-.55.64-1.17.8-1.86.16-.68.26-1.36.33-2.04.61-6.06-2.01-11.41-2.01-11.41l.04-3.18m35.64 82.9l-.04.01-7.42 1.51-53.26-.19-4-.02-8.28-.03m-28.21-34.83l-5.11 33.94-8.8 96.05s-3.33-4.83-10-2.33c-6.66 2.5-8.09 1.75-8.09 1.75l1.43-87.09.47-73.06m65.1 6.49l-.88-7.01m-35.58 25.45l1.46 5.81 13.14 60.35 8.35 64.14 3.02.4 4.35-.47.28-.04 1.88-.2.94-.1.03-.01 1.65-.18 2.15-.23 1.23-.17-.53-88.61m19.73-85.64c-.09 2.11-.37 3.75-1.02 4.11-2.16 1.2-7.47 11.76-7.47 11.76 2.25-.34 4.13-.83 5.62.06h.02M159 124.58l-.2 77.76-1.14.42-13.85 1.17c-2.59.22-4.8-1.84-4.76-4.44.05-2.9.12-6.79.22-11.37.03-1.67.06-3.43.1-5.28.16-8.15.83-18.23.82-28.29v-.05c.01-12.38.05-25.3.15-36.55-.05-8.93-.67-27.86-1.68-41.03-.6-7.82-1.52-14.12-3.09-16.21m-10.97 19.3l-4.75-.01m40.01 279.08l-.53-1.4m37.58-122.3l.73 5.3-17 .33-.23-5.75M126.85 75.33l-2.25 4.68 3.86 71.89-6.41 10.49-5.56-9.21L119.85 80l-1.73-5.26m20.54 2.18c-1.11 3.9-2.59 7.34-2.59 7.34l-1.79-1.73v-.01l-7.43-7.19-4.44-4.3-4.29 3.71-8 8.89s-1.43-1.89-2.49-4.83v-.01m46.08 40.06s2.24 1.9 5.29 5.73c6.19 7.77 15.59 34.65 15.81 58.47 1.52-.07 3.22.03 4.95.21 3.28.35 6.71 1 9.35 1.41 2.72.43 4.6.63 4.6-.02 0-1.6 1.22-29.53-4.72-50.86-5.95-21.33-14.09-42.03-24.39-52.36-4.31-4.32-15.18-13.64-23.3-15.23m-1.11 88.35v-.05c2.52-36.19 7.9-63.06 7.9-63.06l-4.32-5.33s.62-1.19 3.98-5.19c-1.59-6.82-4.06-11.53-6.45-14.72-2.24-3.01-4.42-4.67-5.73-5.49-.21-.12-.39-.24-.55-.32l.01.9c.03.26.06.51.05.76.03 4.87-4.56 8.85-11.31 8.89-.46 0-.89-.01-1.34-.04h-.01c-5.98-.45-9.95-4.59-10.15-9.01l-1.04.1m-2.72 86.68c.19 5.67.13 21.76.26 34.57.02 1.93.04 3.79.05 5.51.06 5.63.1 9.83.11 10.86a3.818 3.818 0 01-3.87 3.85l-11.62-.18-2.3.06-1.34-78.5-.18-13.14m34.74 76.93l-.26-5.44m-7.13 5.56v-5.51m22.37-.4c-5.18.18-10.4.29-15.24.35-2.5.03-4.9.04-7.13.05-3.1.01-5.88.01-8.19 0m.05 5.51c2.59.03 5.34.03 8.14 0 2.44-.02 4.92-.06 7.39-.12 5.21-.13 10.36-.32 14.88-.51M111.23 61.99c-1.77 3.11-2.98 8.9-3.6 16.8v.01c-1.09 13.68-.19 32.49.43 56.08.04 1.23.21 6.57.45 13.79l-8.35-52.93 2.93-5.59s-2.17-3.12-2.65-5.33c1.98-9.99 5.69-17.93 5.85-18.29l.01-.01h.01v-.01h.01l4.64-4.59.27.07zm3.74-18.81s15.16 1.5 17 .33c-1.34 2.67-4.5 4.67-7.67 5.5-3.17.83-9.33-5.83-9.33-5.83zm12.5-8.5l-1.34 1.16s-4 1.34-4.83 0c-.83-1.33 1.83-5.16 1.83-5.16m4.84-2.34s3.25-2.66 6.83.5m-21.33-.66s5-3.17 7 .5m14.83-5.67l-6.83-2.67m-15.5 1.84l7.16-1.84m18.15 17.43c-.14 1.32-.38 3.46-.57 5.37m-.41-5.55c.18.25.53.14.98.18 2 .19 4.87-1.64 5.69-5.59.67-3.25.11-5.06-1.11-5.91m-4.48-9.84s-9.08-2.42-13.58-3.75c-4.5-1.34-9.67 1.66-9.67 1.66l-6 4.34v12.83l-2.66-6.17-.17-10s-1.83 0-2 1.67c-.17 1.67-6-10.83 7-15.5 4.33-1.54 8.04-.58 11 1.51 1.17.82 18.83-3.67 21.33 11.49.85 5.14-.33 11.33-1.16 12.67-.84 1.33-4.5 8.5-3.92 8.16l-.17-18.91zm-28.17 23.72l-1.57-2.47s-5 1.16-4.84-5.84c.17-7 3.5-4.33 3.5-4.33m5.67 12.67c2 0 9.16-1.34 10.66-1.34s7.34 1.67 8.34 1.67 6.16-1.67 5.66.33 2 9.17.17 11.84c-1.04 1.51-9.67 9.83-14.83 10-5.17.16-9.5-7-12.17-8.5s-1.02-13.87-.5-14.17c1.17-.67.67.17 2.67.17z" stroke="#00441b" fill="none" stroke-width="1.5" stroke-linecap="round" stroke-linejoin="round"/></svg>