<svg xmlns="http://www.w3.org/2000/svg" width="160" height="160"><style>.st2{fill:#5ea87c}</style><path d="M80 0c44.18 0 80 35.81 80 80 0 44.18-35.82 80-80 80-44.19 0-80-35.82-80-80C0 35.81 35.81 0 80 0" fill="#f2f5f3" fill-rule="evenodd"/><path d="M130 92V72c0 10.87-8.66 19.69-19.45 19.98C116.22 88.45 120 82.16 120 75V40c0-11.05-8.95-20-20-20-11.06 0-20 8.95-20 20v16H50c-11.06 0-20-8.96-20-20v20H20v39h10v20c0-7.41 4.01-13.87 10-17.31V120c0 11.05 8.94 20 20 20h80V92z" fill="#fff"/><path class="st2" d="M108 80c0 4.41-3.59 8-8 8-4.42 0-8-3.59-8-8v-5c0-4.42 3.58-8 8-8 4.41 0 8 3.58 8 8zm-8-25c-11.06 0-20 8.95-20 20s8.94 20 20 20c3.87 0 7.48-1.1 10.55-3.03C116.22 88.45 120 82.16 120 75c0-11.05-8.95-20-20-20"/><path d="M130 72v48c0 11.05-8.95 20-20 20H60c11.05 0 20-8.95 20-20 0-11.06-8.95-20-20-20-11.06 0-20 8.94-20 20V97.69A19.81 19.81 0 0149.8 95H100c3.87 0 7.48-1.1 10.55-3.03C121.34 91.69 130 82.87 130 72" fill="#009640"/><path class="st2" d="M100 20c-11.06 0-20 8.95-20 20v16H50c-11.05 0-20-8.96-20-20v39c0 10.98 8.84 19.9 19.79 20H100c-11.06 0-20-8.95-20-20s8.94-20 20-20c11.05 0 20 8.95 20 20V40c0-11.05-8.95-20-20-20M68 125c0 4.41-3.59 8-8 8-4.42 0-8-3.59-8-8v-5c0-4.42 3.58-8 8-8 4.41 0 8 3.58 8 8zm-8-25c-11.05 0-20 8.94-20 20 0 11.05 8.95 20 20 20s20-8.95 20-20c0-11.06-8.95-20-20-20"/><path d="M49.9 95H20V56h10v19c0 11.02 8.9 19.94 19.9 20" fill="#82a390"/><path d="M40 120V97.69M80 120V95m-28 25c0-4.42 3.58-8 8-8 4.41 0 8 3.58 8 8v5c0-4.42-3.59-8-8-8-4.42 0-8 3.58-8 8v-5zm-12 0c0 11.05 8.95 20 20 20s20-8.95 20-20c0-11.06-8.95-20-20-20s-20 8.94-20 20zm28 5v-5c0-4.42-3.59-8-8-8-4.42 0-8 3.58-8 8v5m0 0c0 4.41 3.58 8 8 8 4.41 0 8-3.59 8-8 0-4.42-3.59-8-8-8-4.42 0-8 3.58-8 8zm58-33c11.05 0 20-8.95 20-20v48c0 11.05-8.95 20-20 20m-50 0h80V92h-10m-80 3c-11.05 0-20 8.94-20 20V95m90-20V40c0-11.06-8.95-20-20-20-11.06 0-20 8.94-20 20v35m28 5c0-4.42-3.59-8-8-8-4.42 0-8 3.58-8 8v-5c0-4.42 3.58-8 8-8 4.41 0 8 3.58 8 8v5zm-8-25c-11.06 0-20 8.95-20 20s8.94 20 20 20c11.05 0 20-8.95 20-20s-8.95-20-20-20zm8 25v-5c0-4.42-3.59-8-8-8-4.42 0-8 3.58-8 8v5m8-8c-4.42 0-8 3.58-8 8 0 4.41 3.58 8 8 8 4.41 0 8-3.59 8-8 0-4.42-3.59-8-8-8zM50 95c-11.05 0-20-8.95-20-20V36c0 11.05 8.95 20 20 20h30m-50 0H20v39h80" stroke="#00441b" fill="none" stroke-width="2"/></svg>