<svg xmlns="http://www.w3.org/2000/svg" width="160" height="160"><style>.st1{fill:#fff}</style><path d="M80 0c44.18 0 80 35.81 80 80 0 44.18-35.82 80-80 80-44.19 0-80-35.82-80-80C0 35.81 35.81 0 80 0" fill="#f2f5f3" fill-rule="evenodd"/><path class="st1" d="M116 141H80V55h16v66c0 11.05 8.95 20 20 20"/><path d="M136 39v82c0-11.06-8.95-20-20-20s-20 8.94-20 20V39c0-11.05 8.95-20 20-20s20 8.95 20 20" fill="#82a390"/><path d="M124 126c0 4.41-3.58 8-8 8s-8-3.59-8-8v-5c0-4.42 3.58-8 8-8s8 3.58 8 8zm-8-25c-11.05 0-20 8.94-20 20 0 11.05 8.95 20 20 20s20-8.95 20-20c0-11.06-8.95-20-20-20" fill="#5ea87c"/><path class="st1" d="M124 121v5c0 4.41-3.58 8-8 8s-8-3.59-8-8v-5c0-4.42 3.58-8 8-8s8 3.58 8 8"/><path d="M42 55v29m0 27v30m4-8l-4 8m0 0l-4-8m4-78l-4 8m4-8l4 8m8 42v-7l-3 3-3-3v7m-13-5c0 2.19 1.79 4 4 4 2.2 0 4-1.81 4-4v-6.5c0-2.2-1.8-4-4-4-2.21 0-4 1.8-4 4v.5c0 2.19 1.79 4 4 4 2.2 0 4-1.81 4-4m-18 2l5-5v14m50 36H24m0-86h56m16 0H80v86h36m0-23c-4.42 0-8 3.58-8 8 0 4.41 3.58 8 8 8 4.41 0 8-3.59 8-8 0-4.42-3.59-8-8-8zm8 8v-5c0-4.42-3.59-8-8-8-4.42 0-8 3.58-8 8v5m28-5c0 11.04-8.96 20-20 20-11.05 0-20-8.96-20-20 0-11.05 8.95-20 20-20 11.04 0 20 8.95 20 20zm-40 0V39c0-11.05 8.95-20 20-20 11.04 0 20 8.95 20 20v82" stroke="#00441b" fill="none" stroke-width="2"/></svg>