<svg xmlns="http://www.w3.org/2000/svg" width="160" height="160"><path d="M80 0c44.18 0 80 35.81 80 80 0 44.18-35.82 80-80 80-44.19 0-80-35.82-80-80C0 35.81 35.81 0 80 0" fill="#f2f5f3" fill-rule="evenodd"/><path d="M140 110l-60 25-60-25 24-10 36 15 36-15z" fill="#fff"/><path d="M140 90l-60 25-60-25 24-10 36 15 36-15z" fill="#009640"/><path d="M140 70L80 95 20 70l24-10 36 15 36-15z" fill="#5ea87c"/><path d="M140 50L80 75 20 50l60-25z" fill="#82a390"/><path d="M140 50L80 75 20 50l60-25 60 25zM44 60L20 70l24 10 36 15 36-15 24-10-24-10M44 80L20 90l24 10 36 15 36-15 24-10-24-10m0 20l24 10-60 25-60-25 24-10" stroke="#00441b" fill="none" stroke-width="2"/></svg>