<svg xmlns="http://www.w3.org/2000/svg" width="160" height="160"><path d="M80 0c44.18 0 80 35.81 80 80 0 44.18-35.82 80-80 80-44.19 0-80-35.82-80-80C0 35.81 35.81 0 80 0" fill="#f2f5f3" fill-rule="evenodd"/><path d="M57 36.09v49.78c-.03-4.98-1.98-9.96-6.41-12.9C47.32 70.8 43.72 70 40.01 70c-6.24 0-12.35 2.83-16.04 8.47-2.67 4.08-3.94 8.83-3.97 13.36V42.06c0-4.59.27-9.24 2.97-13.36 3.69-5.64 9.79-8.71 16.03-8.71 3.7 0 7.74 1.03 11 3.2 4.47 2.97 7 7.89 7 12.9" fill="#82a390"/><path d="M140 42v98H40v-23.91c2.3.6 4.64.89 7 .91h67V67H57V42z" fill="#fff"/><path d="M114 67v50H47c-2.36-.01-4.7-.31-7-.91-3.18-.79-6.27-2.15-9.2-4.09C23.82 107.36 20 99.81 20 92v-.17c.03-4.53 1.3-9.28 3.97-13.36 3.69-5.64 9.8-8.47 16.04-8.47 3.71 0 7.31.8 10.58 2.97 4.43 2.94 6.38 7.93 6.41 12.9V67z" fill="#009640"/><path d="M40 116.09V140h100V42H57M20 91.84V42.07c0-4.6.27-9.25 2.96-13.37C26.65 23.06 32.76 20 39 20c3.7 0 7.73 1.03 11 3.19 4.47 2.97 7 7.89 7 12.91v49.77m-17.31.7a4.068 4.068 0 001.15 5.62c2.32 1.54 5.44.9 6.97-1.44 1.92-2.93 1.12-6.86-1.79-8.79-3.63-2.41-8.83-1.62-11.22 2.04-1.11 1.69-1.8 4.11-1.8 6 0 3.21 2.07 6.05 4.92 7.95 5.67 3.76 13.3 2.18 17.03-3.53C56.68 91.78 57 88.96 57 86c0-5.02-1.95-10.07-6.42-13.03C47.32 70.8 43.71 70 40.01 70c-6.24 0-12.36 2.83-16.05 8.47C21.27 82.59 20 87.4 20 92c0 7.82 3.81 15.36 10.8 20 5.04 3.35 10.57 4.97 16.2 5h67V67H57m-1 37v-3m-5 13v-3m-10 2v-3m70 4v-3m-10 3v-3m-10 3v-3m-10 3v-3m-10 3v-3m-10 0v3m45-10v-3m-10 3v-3m-10 3v-3m-10 3v-3m-10 3v-3m45-7v-3m-10 3v-3m-10 3v-3m-10 3v-3m-10 3v-3m-10 0v3m45-10v-3m-10 3v-3m-10 3v-3m-10 3v-3m-10 3v-3m45-7v-3m-10 3v-3m-10 3v-3m-10 3v-3m-10 3v-3m-10 0v3" stroke="#00441b" fill="none" stroke-width="2"/></svg>