<svg xmlns="http://www.w3.org/2000/svg" width="160" height="160"><path d="M80 0c44.18 0 80 35.81 80 80 0 44.18-35.82 80-80 80-44.19 0-80-35.82-80-80C0 35.81 35.81 0 80 0" fill="#f2f5f3" fill-rule="evenodd"/><path d="M140 73v50c0 11.05-8.95 20-20 20-11.02 0-19.94-8.89-20-19.87-.07 10.98-9 19.87-20 19.87-10.99 0-19.92-8.87-20-19.84-.09 10.97-9.02 19.84-20 19.84-11.06 0-20-8.95-20-20V73c0-11.05 8.94-20 20-20V37c0-11.05 8.94-20 20-20 11.05 0 20 8.95 20 20 0-11.05 8.94-20 20-20 11.05 0 20 8.95 20 20v16c11.05 0 20 8.95 20 20" fill="#009640"/><path d="M48 128c0 4.41-3.59 8-8 8-4.42 0-8-3.59-8-8v-5c0-4.42 3.58-8 8-8 4.41 0 8 3.58 8 8zm-8-25c-11.05 0-20 8.94-20 20 0 11.05 8.95 20 20 20 10.99 0 19.9-8.87 20-19.84v-.29c-.07-11-9-19.87-20-19.87m88 25c0 4.41-3.59 8-8 8-4.42 0-8-3.59-8-8v-5c0-4.42 3.58-8 8-8 4.41 0 8 3.58 8 8zm-8-25c-11.03 0-19.96 8.91-20 19.93v.19c.06 10.99 8.99 19.88 20 19.88 11.05 0 20-8.95 20-20 0-11.06-8.95-20-20-20M68 92c0 4.41-3.59 8-8 8-4.42 0-8-3.59-8-8v-5c0-4.42 3.58-8 8-8 4.41 0 8 3.58 8 8zm-8-25c-11.05 0-20 8.94-20 20 0 11.05 8.95 20 20 20 11.01 0 19.93-8.88 20-19.87v-.2C79.95 75.91 71.02 67 60 67m48 25c0 4.41-3.59 8-8 8-4.42 0-8-3.59-8-8v-5c0-4.42 3.58-8 8-8 4.41 0 8 3.58 8 8zm-8-25c-11.03 0-19.96 8.91-20 19.93v.2c.06 10.99 8.99 19.87 20 19.87 11.05 0 20-8.95 20-20 0-11.06-8.95-20-20-20m-12 61c0 4.41-3.59 8-8 8-4.42 0-8-3.59-8-8v-5c0-4.42 3.58-8 8-8 4.41 0 8 3.58 8 8zm-8-25c-11.02 0-19.94 8.87-20 19.87v.29c.09 10.97 9.01 19.84 20 19.84 11 0 19.93-8.89 20-19.88v-.19C99.95 111.91 91.02 103 80 103" fill="#5ea87c"/><path d="M100 79c-4.42 0-8 3.58-8 8v5c0 4.41 3.58 8 8 8 4.41 0 8-3.59 8-8v-5c0-4.42-3.59-8-8-8m-40 0c-4.42 0-8 3.58-8 8v5c0 4.41 3.58 8 8 8 4.41 0 8-3.59 8-8v-5c0-4.42-3.59-8-8-8m-20 36c-4.42 0-8 3.58-8 8v5c0 4.41 3.58 8 8 8 4.41 0 8-3.59 8-8v-5c0-4.42-3.59-8-8-8m40 0c-4.42 0-8 3.58-8 8v5c0 4.41 3.58 8 8 8 4.41 0 8-3.59 8-8v-5c0-4.42-3.59-8-8-8m48 8v5c0 4.41-3.59 8-8 8-4.42 0-8-3.59-8-8v-5c0-4.42 3.58-8 8-8 4.41 0 8 3.58 8 8" fill="#fff"/><path d="M120 37v50c0-11.06-8.95-20-20-20-11.03 0-19.96 8.91-20 19.93V37c0-11.05 8.94-20 20-20 11.05 0 20 8.95 20 20m-40 0v49.93C79.95 75.91 71.02 67 60 67c-11.05 0-20 8.94-20 20V37c0-11.05 8.95-20 20-20s20 8.95 20 20" fill="#82a390"/><path d="M100 84c-4.42 0-8 3.58-8 8 0 4.41 3.58 8 8 8 4.41 0 8-3.59 8-8 0-4.42-3.59-8-8-8zm-40 0c-4.42 0-8 3.58-8 8 0 4.41 3.58 8 8 8 4.41 0 8-3.59 8-8 0-4.42-3.59-8-8-8zm60 36c-4.42 0-8 3.58-8 8 0 4.41 3.58 8 8 8 4.41 0 8-3.59 8-8 0-4.42-3.59-8-8-8zm-40 0c-4.42 0-8 3.58-8 8 0 4.41 3.58 8 8 8 4.41 0 8-3.59 8-8 0-4.42-3.59-8-8-8zm-40 0c-4.42 0-8 3.58-8 8 0 4.41 3.58 8 8 8 4.41 0 8-3.59 8-8 0-4.42-3.59-8-8-8zm68-28v-5c0-4.42-3.59-8-8-8-4.42 0-8 3.58-8 8v5m-24 0v-5c0-4.42-3.59-8-8-8-4.42 0-8 3.58-8 8v5m68-39c11.05 0 20 8.95 20 20v50m-120 0V73c0-11.05 8.94-20 20-20m60 53.97V123m-40-16.03V123m60-36c0 11.04-8.96 20-20 20-11.05 0-20-8.96-20-20 0-11.05 8.95-20 20-20 11.04 0 20 8.95 20 20zM60 67c-11.05 0-20 8.95-20 20 0 11.04 8.95 20 20 20 11.04 0 20-8.96 20-20 0-11.05-8.96-20-20-20zm20-30c0-11.05 8.95-20 20-20 11.04 0 20 8.95 20 20v50m-40 0V37c0-11.05-8.96-20-20-20-11.05 0-20 8.95-20 20v50m80 16c-11.05 0-20 8.95-20 20 0 11.04 8.95 20 20 20 11.04 0 20-8.96 20-20 0-11.05-8.96-20-20-20zm-40 0c-11.05 0-20 8.95-20 20 0 11.04 8.95 20 20 20 11.04 0 20-8.96 20-20 0-11.05-8.96-20-20-20zm48 25v-5c0-4.42-3.59-8-8-8-4.42 0-8 3.58-8 8v5m-24 0v-5c0-4.42-3.59-8-8-8-4.42 0-8 3.58-8 8v5m-40 0v-5c0-4.42 3.58-8 8-8 4.41 0 8 3.58 8 8v5m12-5c0 11.04-8.96 20-20 20-11.05 0-20-8.96-20-20 0-11.05 8.95-20 20-20 11.04 0 20 8.95 20 20z" stroke="#00441b" fill="none" stroke-width="2"/></svg>