<svg xmlns="http://www.w3.org/2000/svg" width="52" height="92"><path d="M31 82.31c0 1.37-.56 2.63-1.47 3.53-.9.91-2.16 1.47-3.53 1.47-1.37 0-2.63-.56-3.53-1.47-.91-.9-1.47-2.16-1.47-3.53 0-1.37.56-2.63 1.47-3.53.9-.91 2.16-1.47 3.53-1.47 2.75 0 5 2.25 5 5" fill="#009640"/><path d="M51 4.84V9H1V4.84C1 2.73 2.73 1 4.84 1h42.32C49.27 1 51 2.73 51 4.84m-21.47 81c-.9.91-2.16 1.47-3.53 1.47-1.37 0-2.63-.56-3.53-1.47-.91-.9-1.47-2.16-1.47-3.53 0-1.37.56-2.63 1.47-3.53.9-.91 2.16-1.47 3.53-1.47 2.75 0 5 2.25 5 5 0 1.37-.56 2.63-1.47 3.53M1 74v13.16C1 89.27 2.73 91 4.84 91h42.32c2.11 0 3.84-1.73 3.84-3.84V74z" fill="#5ea87c"/><path d="M46 38.81c0 11.04-8.96 20-20 20-11.05 0-20-8.96-20-20 0-11.05 8.95-20 20-20 11.04 0 20 8.95 20 20" fill="#fff"/><path d="M31 82.31h0c0-2.75-2.25-5-5-5h0c-2.75 0-5 2.25-5 5h0c0 2.75 2.25 5 5 5h0c2.75 0 5-2.25 5-5zM51 74H1M51 9H1m46.15 82H4.84A3.85 3.85 0 011 87.15V4.84C1 2.72 2.72 1 4.84 1h42.31A3.85 3.85 0 0151 4.84v82.31c0 2.12-1.73 3.85-3.85 3.85z" stroke="#00441b" fill="none" stroke-width="2" stroke-linecap="round" stroke-linejoin="round"/></svg>