<svg xmlns="http://www.w3.org/2000/svg" width="100" height="99.99"><path d="M72 41.49v26c0 1.1-.91 2-2 2H30c-1.1 0-2-.9-2-2v-26z" fill="#82a390"/><path d="M28 41.49v-6a2 2 0 012-2h40c1.09 0 2 .9 2 2v6z" fill="#5ea87c"/><path d="M61 30.49v6m-22-6v6m33 5H28m42 28H30c-1.1 0-2-.9-2-2v-32c0-1.1.9-2 2-2h40c1.09 0 2 .9 2 2v32c0 1.1-.91 2-2 2z" stroke="#00441b" fill="none" stroke-width="2"/><path d="M65 64.49h2m-10 0h2m-10 0h2m-10 0h2m-10 0h2m30-6h2m-10 0h2m-10 0h2m-10 0h2m-10 0h2m30-6h2m-10 0h2m-10 0h2m-10 0h2m-10 0h2m30-6h2m-10 0h2m-10 0h2m-10 0h2m-10 0h2" stroke="#fff" fill="none" stroke-width="2"/></svg>