<svg xmlns="http://www.w3.org/2000/svg" width="100" height="99.99"><path d="M50.66 78.22s3.99.78 7.58.78 16.75-5.69 16.75-27.78c0-22.06-24.6-14.15-24.6-14.15h-.79s-24.61-7.91-24.61 14.15C24.99 73.31 38.16 79 41.75 79c3.59 0 7.58-.78 7.58-.78z" fill="#5ea87c"/><path d="M40.48 21.11s1.45-.11 2.88-.11 9.82.44 10.51 4.94c.48 3.16-2.17 4.22-3.19 4.57-.68 1.52-2.05 2.4-3.86 2.39-2.41-.02-4.44-1.94-4.34-4.29.21-4.83-2-7.5-2-7.5" fill="#82a390"/><path d="M53.69 39.81c-5.1 1.43-7.71-.13-7.71-.13m-5.5-18.57s1.45-.11 2.88-.11 9.82.44 10.51 4.94c.48 3.16-2.17 4.22-3.19 4.57-.68 1.52-2.05 2.4-3.86 2.39-2.41-.02-4.44-1.94-4.34-4.29.21-4.83-2-7.5-2-7.5zm9.45 19.01s-.64-16.37 16.75-18.43M50.66 78.22s3.99.78 7.58.78S75 73.31 75 51.22c0-22.06-24.61-14.15-24.61-14.15h-.79S25 29.16 25 51.22C25 73.31 38.16 79 41.75 79s7.58-.78 7.58-.78h1.33z" stroke="#00441b" fill="none" stroke-width="2"/><path d="M36.03 40.31s-7.21 1.81-5.49 13.19" stroke="#fff" fill="none" stroke-width="2"/></svg>