<svg xmlns="http://www.w3.org/2000/svg" width="100" height="99.99"><path d="M42.56 34.08c-9.01-.37-16.37 7.2-16.43 16.21-.04 6.76 3.32 11.9 9.16 14.41 1.32 3.81 5.39 13.74 17.48 11.94 23.52-3.51 18.51-50.05 18.51-50.05s-10.23 8.27-28.72 7.49" fill="#82a390"/><path d="M35.29 64.7c5.96-8.96 14.33-10.46 16.62-11.59 14.99-7.46 19.37-26.52 19.37-26.52M35.29 64.7l-7.22 7.22m43.21-45.33s5.01 46.54-18.51 50.05c-12.09 1.8-16.16-8.13-17.48-11.94-5.84-2.51-9.2-7.65-9.16-14.41.06-9.01 7.42-16.58 16.43-16.21 18.49.78 28.72-7.49 28.72-7.49z" stroke="#00441b" fill="none" stroke-width="2" stroke-linecap="round"/><path d="M65.5 56.32V22.67c0-2.02-1.66-3.68-3.69-3.68h-3.63a3.69 3.69 0 00-3.68 3.68v33.65h.02C50.65 58.31 48 62.34 48 66.99c0 6.63 5.36 12 12 12 6.62 0 12-5.37 12-12 0-4.65-2.64-8.67-6.5-10.67" fill="#fff"/><path d="M60 54v8l1.89.6c1.82.75 3.11 2.54 3.11 4.63 0 2.76-2.24 5-5 5-2.77 0-5-2.24-5-5 0-2.13 1.33-3.95 3.2-4.67L60 62" fill="#5ea87c"/><path d="M59 51h-4m4-4h-4m4-4h-4m4-4h-4m4-4h-4m4-4h-4m0-4h4m1 27v8l1.89.6c1.82.75 3.11 2.54 3.11 4.63 0 2.76-2.24 5-5 5-2.77 0-5-2.24-5-5 0-2.13 1.33-3.95 3.2-4.67L60 62m4.55-6.11A12.004 12.004 0 0160 79c-6.63 0-12-5.38-12-12 0-5.12 3.19-9.48 7.69-11.21m9.81.54V22.68c0-2.03-1.66-3.68-3.69-3.68h-3.63c-2.03 0-3.68 1.65-3.68 3.68v33.65" stroke="#00441b" fill="none" stroke-width="2"/></svg>