<svg xmlns="http://www.w3.org/2000/svg" width="100" height="99.99"><path d="M70.04 38.44h-8.49v-8.49m4.24 12.73h-8.48V34.2M29.95 61.55h8.49v8.49m4.24-4.25v-8.48H34.2m4.24-27.36v8.49h-8.49m12.73-4.24v8.48H34.2m28.35 27.36v-8.49h8.49m-4.25-4.24h-8.48v8.48m-36.32-21.8l6 6-6 6m6-12l6 6-6 6m50 0l-6-6 6-6m-6 0l-6 6 6 6m-28 22l6-6 6 6m-12-6l6-6 6 6m0-50l-6 6-6-6m0 6l6 6 6-6m-24.8 3.2l16.08 16.08m0 5.45L31.19 68.8m21.53-16.08L68.8 68.8M52.72 47.27L68.8 31.19m-48.81 18.8h26.15m3.85 3.85v27.15m3.85-31h26.15m-30-3.85V18.99m0 34.5c-1.93 0-3.5-1.56-3.5-3.5 0-1.93 1.57-3.5 3.5-3.5 1.94 0 3.5 1.57 3.5 3.5 0 1.94-1.56 3.5-3.5 3.5z" stroke="#00441b" fill="none" stroke-width="2"/></svg>