<svg xmlns="http://www.w3.org/2000/svg" width="40" height="40"><path fill="#009640" class="st0" d="M27.64 22.74c.08.17.21.35.4.53.19.18.43.4.71.65.03.02.05.03.06.05 1.16 1.08 1.94 1.99 2.36 2.73.02.04.05.09.08.15s.05.17.08.33.03.29 0 .42c-.04.12-.14.23-.31.34-.17.1-.42.2-.73.2h-3.16c-.33 0-.78-.07-1.33-.33l-.25-.15c-.25-.17-.53-.44-.86-.79-.33-.35-.61-.67-.85-.96-.23-.28-.48-.52-.75-.71-.27-.2-.5-.26-.7-.19-.02 0-.06.02-.1.04-.04.02-.11.08-.21.18-.1.1-.18.22-.26.36-.08.15-.15.36-.21.64-.06.29-.09.61-.08.96 0 .12-.02.24-.05.34-.03.1-.06.18-.09.23l-.05.06c-.15.16-.36.25-.65.27h-1.42c-.59.03-1.19-.03-1.8-.2-.62-.17-1.16-.39-1.63-.66-.46-.26-.89-.53-1.27-.81s-.67-.51-.87-.71l-.31-.3c-.08-.08-.19-.2-.34-.37-.14-.16-.43-.54-.88-1.12-.44-.58-.88-1.2-1.31-1.86-.42-.66-.93-1.53-1.51-2.61-.58-1.08-1.12-2.19-1.61-3.35-.05-.14-.07-.25-.07-.34 0-.09.01-.15.03-.2l.05-.07c.13-.16.36-.23.71-.23h3.38c.1.01.19.01.28.05.09.04.16.07.2.11l.06.03c.13.09.23.23.3.4.16.41.35.84.57 1.28.21.44.38.77.5 1l.2.36c.24.49.47.92.69 1.28.22.37.42.65.6.85.18.2.35.36.51.47.17.12.31.18.42.18.12 0 .23-.02.33-.06.02-.01.04-.03.07-.07.02-.03.07-.12.14-.27.08-.15.13-.34.17-.58.04-.24.08-.57.12-1 .04-.43.04-.94 0-1.54-.02-.33-.06-.63-.11-.9-.06-.27-.12-.46-.18-.57l-.07-.15c-.21-.28-.56-.45-1.05-.53-.11-.01-.09-.11.06-.29.13-.16.29-.28.47-.37.44-.22 1.42-.32 2.95-.3.68.01 1.23.06 1.67.16.16.04.3.1.41.17.11.07.2.16.25.29.06.13.1.26.13.4.03.13.05.32.05.56 0 .24-.01.46-.02.68 0 .21-.01.5-.03.87-.01.36-.02.7-.02 1.02 0 .09 0 .26-.01.51-.01.26-.01.46 0 .6 0 .14.01.3.04.5.02.19.07.35.14.48s.16.23.28.3c.06.02.13.03.21.05.07.02.18-.03.32-.14.14-.1.3-.24.47-.42.17-.18.39-.45.64-.83.26-.37.54-.82.84-1.33.49-.85.93-1.78 1.32-2.77.03-.08.07-.16.12-.22.05-.06.1-.1.14-.13l.05-.04c.02 0 .04-.01.06-.03.03-.01.08-.02.16-.03.08-.02.17-.04.25-.03h3.55c.29 0 .59.03.79.09.21.06.34.13.38.2l.08.13c.19.52-.43 1.67-1.85 3.56-.2.27-.47.62-.8 1.05-.33.42-.56.72-.68.89-.13.17-.25.38-.38.61-.13.24-.18.41-.15.52.03.11.08.25.16.43M20 0C8.97 0 0 8.97 0 19.99c0 11.03 8.97 20 20 20 11.02 0 20-8.97 20-20C40 8.97 31.02 0 20 0"/></svg>