<svg xmlns="http://www.w3.org/2000/svg" width="40" height="40"><path fill="#009640" class="st0" d="M26.62 24.95c0-.32.27-.57.59-.57.33 0 .59.25.59.57v.99h-1.18zm1.18 2.95v.91c0 .32-.26.58-.59.58-.32 0-.59-.26-.59-.58v-1.77h2.54s.01-1.23 0-1.79c0-.24-.02-.48-.07-.72-.13-.6-.47-1.06-1.09-1.26-.19-.06-.39-.09-.58-.1-.64-.04-1.21.14-1.65.62-.39.42-.52.92-.52 1.47 0 1.05-.01 2.1 0 3.15.01.27.04.54.1.8.13.56.45 1 1 1.25.41.17.83.18 1.26.12.7-.1 1.17-.46 1.4-1.12.18-.49.16-1.56.16-1.56zm3.2 1.8c0 1.75-1.44 3.18-3.24 3.21-5.17.11-10.35.11-15.53 0C10.43 32.88 9 31.45 9 29.7v-7.87c0-1.75 1.43-3.18 3.23-3.22 5.18-.11 10.36-.11 15.53 0 1.8.04 3.24 1.47 3.24 3.22zM14.04 6.99s.61 2.55.91 3.76c.29-1.21.91-3.76.91-3.76h1.54l-1.72 5.54c-.01.06-.02.12-.02.19v3.91h-1.42v-3.91c0-.07-.01-.13-.03-.19l-1.72-5.54zm5.22 2.34c1.07 0 1.94.85 1.94 1.89v3.7c0 1.04-.87 1.89-1.94 1.89-1.08 0-1.94-.85-1.94-1.89v-3.7c0-1.04.86-1.89 1.94-1.89m3.08.18h1.34v5.43c0 .07.01.15.02.22.04.22.21.33.43.25.27-.09.48-.27.65-.49.03-.03.02-.08.02-.13V9.51h1.36v7.12H24.8v-.76c-.15.14-.28.28-.42.4a1.8 1.8 0 01-.86.43c-.5.1-.94-.06-1.1-.57a1.89 1.89 0 01-.08-.53zM20 0C8.97 0 0 8.97 0 20c0 11.02 8.97 20 20 20 11.02 0 20-8.98 20-20C40 8.97 31.02 0 20 0m-2.23 23.34l1.32-.01v7.09h-1.32v-.78c-.05.05-.08.07-.1.1-.28.31-.61.57-1.02.71-.2.07-.41.09-.62.06a.767.767 0 01-.6-.47c-.11-.23-.13-.49-.13-.74-.01-.94-.01-5.91-.01-5.96h1.32c.01.05.01 3.61.01 5.35 0 .1 0 .2.02.29.05.23.23.33.46.25.27-.1.47-.27.64-.49.03-.03.03-.08.03-.13zm.93-8.35v-3.84c0-.3.25-.55.56-.55.31 0 .56.25.56.55v3.84c0 .31-.25.55-.56.55a.55.55 0 01-.56-.55m-3.4 7.21h-1.55v8.21h-1.49V22.2h-1.55v-1.37h4.59zm7.57 6.63c0 .08-.01.15-.03.22-.06.28-.28.41-.59.34a.802.802 0 01-.46-.27 1.56 1.56 0 01-.05-.06V24.7s.03-.08.09-.13c.16-.14.33-.22.54-.2.19.02.33.1.4.26.05.13.09.27.09.4.01 1.27.01 2.54.01 3.8zm1.15-4.93c-.28-.58-.87-.73-1.37-.61-.31.08-.56.25-.77.47-.07.08-.14.22-.14.22v-3.15h-1.32v9.58h1.32v-.53l.13.13c.3.32.67.5 1.13.5.56 0 .94-.26 1.12-.78.08-.24.11-.48.11-.74v-4.02c0-.37-.05-.73-.21-1.07"/></svg>